<?xml version="1.0" standalone="no"?>
<!DOCTYPE svg PUBLIC "-//W3C//DTD SVG 20010904//EN"
 "http://www.w3.org/TR/2001/REC-SVG-20010904/DTD/svg10.dtd">
<svg version="1.0" xmlns="http://www.w3.org/2000/svg"
 width="400.000000pt" height="400.000000pt" viewBox="0 0 400.000000 400.000000"
 preserveAspectRatio="xMidYMid meet">
<metadata>
Created by potrace 1.14, written by Peter Selinger 2001-2017
</metadata>
<g transform="translate(0.000000,400.000000) scale(0.100000,-0.100000)"
fill="#000000" stroke="none">
<path d="M0 2955 c0 -988 1 -1045 18 -1047 9 0 23 -1 29 -1 7 1 11 -2 8 -6 -2
-4 5 -15 16 -25 12 -10 19 -20 16 -22 -8 -9 -57 19 -57 33 0 7 -7 13 -15 13
-8 0 -15 -7 -15 -15 0 -8 6 -15 13 -15 8 0 9 -2 1 -8 -8 -4 -11 -38 -10 -92 1
-80 2 -84 26 -92 l25 -8 -26 4 c-26 3 -27 2 -27 -61 0 -46 3 -61 11 -56 9 5 9
3 0 -8 -9 -11 -12 -60 -11 -163 l1 -148 29 6 c18 3 27 2 23 -4 -3 -6 -12 -10
-18 -10 -7 0 -19 -5 -27 -10 -13 -9 -13 -11 0 -20 10 -6 11 -10 3 -10 -8 0
-13 -15 -13 -40 0 -23 5 -40 11 -40 8 0 8 -5 -1 -15 -8 -10 -9 -15 -1 -15 7 0
8 -8 0 -27 -7 -19 -6 -28 2 -33 8 -6 8 -9 0 -14 -6 -4 -11 -14 -11 -23 0 -11
6 -14 25 -9 33 8 32 -2 0 -14 -25 -10 -26 -12 -24 -95 l2 -85 26 6 c25 5 25 5
-4 -12 -27 -15 -28 -18 -11 -24 15 -5 16 -8 5 -12 -11 -4 -15 -34 -17 -143
l-2 -137 27 7 c15 3 85 12 155 20 70 7 131 16 136 19 5 3 17 -3 26 -13 17 -19
16 -19 -42 -14 -36 3 -110 -2 -182 -12 l-121 -18 2 -98 c1 -54 6 -96 11 -93 4
3 8 -2 8 -10 0 -8 5 -18 12 -22 8 -5 9 -2 5 9 -4 11 -1 17 7 17 21 0 34 23 26
45 -12 34 12 46 80 39 38 -4 60 -2 60 5 0 5 16 8 38 5 20 -2 31 -2 25 2 -7 3
-13 10 -13 15 0 15 42 10 62 -8 10 -9 18 -11 18 -5 0 6 -6 12 -12 15 -7 3 15
8 50 12 34 4 62 11 62 15 0 13 43 20 56 9 8 -6 14 -6 18 0 3 5 0 12 -6 15 -7
3 -3 3 9 1 12 -3 24 -2 27 4 3 5 16 7 28 3 16 -4 19 -2 13 8 -6 10 -2 12 18 8
15 -3 28 0 30 5 2 6 17 10 35 10 17 0 29 4 27 8 -3 3 1 6 8 6 16 -2 101 23
107 32 9 11 92 53 96 48 7 -7 62 48 111 108 42 54 78 121 88 170 4 17 9 37 12
45 16 44 4 213 -18 234 -5 6 -9 17 -9 26 0 9 -7 25 -16 36 -15 18 -15 18 -9
-4 5 -16 1 -30 -12 -44 -10 -12 -13 -18 -6 -15 12 8 43 -1 43 -12 0 -3 -14 -6
-30 -7 -24 -1 -30 3 -30 20 0 12 5 27 12 34 6 6 8 15 4 19 -4 4 -11 1 -16 -7
-15 -24 -11 -5 5 26 17 32 20 64 6 64 -15 0 -62 80 -54 93 5 8 2 8 -9 -1 -14
-11 -17 -10 -23 7 -3 11 -17 36 -31 56 -13 20 -26 46 -28 58 -1 11 -8 23 -14
25 -7 2 -10 8 -7 13 4 5 -1 6 -9 3 -11 -4 -16 0 -16 11 0 10 5 14 13 10 14 -7
-22 23 -40 33 -6 4 -15 20 -19 36 -4 19 -3 27 3 23 6 -4 13 -1 16 7 4 10 0 12
-14 9 -15 -4 -18 -2 -13 13 5 16 4 16 -5 4 -9 -13 -14 -10 -35 15 -23 29 -25
55 -2 55 6 0 4 4 -4 10 -8 5 -11 12 -7 17 4 4 17 1 28 -6 12 -7 23 -10 26 -7
3 3 -5 10 -19 16 -31 15 -48 42 -41 69 4 17 9 19 24 10 23 -12 25 -29 3 -29
-13 0 -14 -3 -4 -15 7 -8 16 -12 21 -9 5 3 9 0 9 -7 0 -7 3 -10 6 -6 3 3 2 12
-2 19 -11 17 -13 48 -3 48 5 0 14 10 20 23 11 20 11 21 -5 8 -14 -12 -19 -12
-29 -1 -10 10 -9 11 3 5 13 -8 13 -7 1 8 -7 9 -10 17 -6 17 4 0 2 7 -5 15 -13
16 -9 18 26 16 12 -1 28 5 37 13 17 18 32 21 22 6 -3 -6 -1 -10 5 -10 6 0 8
-4 5 -10 -3 -5 -2 -10 4 -10 19 0 19 15 0 39 -14 17 -25 22 -44 17 -14 -4 -25
-2 -25 4 0 5 6 10 13 10 6 0 4 5 -5 11 -22 12 -24 31 -3 23 8 -4 15 -1 15 6 0
6 5 8 12 4 7 -5 9 -2 5 8 -5 15 15 28 52 32 20 2 25 46 6 46 -18 0 -19 -12 -3
-28 7 -7 8 -12 3 -12 -18 0 -31 15 -30 35 0 11 -7 25 -15 32 -12 10 -11 11 10
6 l25 -7 -19 30 c-14 21 -15 25 -4 16 12 -10 17 -10 20 -1 3 9 10 9 27 -1 21
-11 23 -10 18 4 -4 9 -2 16 3 16 14 0 12 27 -2 36 -6 4 -14 2 -16 -4 -2 -7
-10 -12 -18 -12 -10 0 -9 5 6 20 27 27 25 33 -11 49 -17 7 -27 16 -22 20 15
10 10 51 -6 51 -32 0 1 13 39 15 28 1 40 -2 40 -11 0 -8 4 -14 9 -14 5 0 7 9
4 21 -4 14 -12 19 -24 16 -10 -3 -25 4 -35 14 -13 15 -14 19 -3 19 11 0 11 2
-1 10 -16 10 -13 12 39 14 16 0 29 -1 29 -4 -1 -3 4 -16 11 -30 l12 -25 -6 25
c-2 14 -5 30 -5 36 0 7 -9 14 -20 17 -11 3 -18 1 -14 -4 3 -5 1 -9 -4 -9 -22
0 -20 32 3 52 26 22 26 25 5 128 -21 109 -23 144 -6 184 22 52 20 66 -8 66
-26 0 -171 72 -197 98 -10 9 -40 39 -68 67 -54 52 -99 132 -108 194 -3 20 -12
48 -19 63 -26 52 -12 210 24 275 6 12 12 29 12 39 0 30 177 190 253 229 144
74 331 73 484 -5 45 -22 85 -45 88 -51 4 -5 11 -7 16 -3 5 3 8 2 7 -3 -1 -4
11 -22 27 -39 101 -103 127 -173 205 -544 6 -30 19 -78 27 -106 15 -46 14 -53
-2 -87 -14 -30 -24 -38 -54 -42 -89 -14 -223 -39 -296 -56 -151 -34 -200 -42
-272 -43 l-72 -1 -18 -39 c-13 -28 -18 -63 -17 -115 1 -64 6 -86 33 -138 17
-34 31 -68 31 -75 0 -8 6 -22 14 -33 7 -11 26 -49 41 -85 15 -36 36 -84 46
-107 10 -23 19 -46 19 -52 0 -6 16 -26 35 -45 20 -20 30 -38 24 -41 -12 -8 -6
-29 31 -110 15 -33 40 -88 55 -122 15 -35 32 -63 36 -63 14 0 10 16 -6 30 -17
14 -21 35 -5 25 5 -3 20 5 32 18 28 30 79 56 96 50 10 -4 10 -8 1 -19 -6 -8
-8 -14 -4 -14 5 0 0 -9 -10 -20 -23 -25 -12 -26 23 -1 15 11 38 22 52 26 17 5
9 -4 -25 -29 -27 -20 -45 -36 -38 -36 6 0 15 5 18 10 3 6 14 10 23 10 12 0 7
-8 -16 -29 -41 -38 -41 -49 -1 -21 53 39 41 16 -23 -40 -57 -50 -61 -52 -74
-35 -8 10 -14 22 -14 27 0 4 -4 8 -10 8 -11 0 17 -78 33 -95 7 -7 8 -5 4 6 -6
19 11 37 91 92 48 34 68 38 40 8 -11 -11 -9 -11 10 -1 41 21 36 3 -9 -29 -51
-38 -47 -39 15 -5 25 14 46 21 46 16 0 -6 -8 -13 -17 -17 -10 -3 -26 -16 -36
-30 l-17 -24 27 15 c40 20 52 17 23 -7 -16 -14 -19 -19 -7 -15 9 3 17 1 17 -4
0 -5 8 -7 18 -4 12 4 14 3 4 -4 -7 -5 -20 -21 -27 -36 -13 -25 -13 -26 8 -14
28 15 67 19 67 7 0 -5 -3 -9 -7 -9 -5 0 -21 -12 -38 -26 -25 -22 -26 -24 -5
-12 53 31 64 27 26 -7 -44 -39 -42 -45 6 -15 18 11 36 20 41 20 10 0 -26 -35
-58 -56 -14 -9 -24 -18 -22 -21 3 -2 28 12 58 31 29 20 55 33 58 30 3 -3 -1
-10 -9 -14 -35 -21 -41 -28 -44 -44 -1 -9 -18 -30 -37 -47 l-34 -31 40 29 c22
16 58 40 80 53 l40 23 -29 -31 c-31 -33 -26 -42 8 -17 33 25 39 17 9 -11 -15
-14 -21 -24 -12 -21 17 5 20 -18 5 -42 -5 -8 1 -7 18 4 43 29 38 12 -9 -31
-25 -22 -45 -39 -45 -37 0 5 -52 -29 -67 -44 -20 -18 -16 -29 20 -55 94 -70
183 -99 307 -97 52 0 103 1 113 0 9 0 17 4 17 10 0 5 -7 9 -15 9 -13 0 -13 3
-3 20 8 13 24 20 42 20 21 0 54 20 116 69 80 63 100 73 100 50 0 -12 -72 -79
-84 -79 -6 0 -19 -9 -29 -20 -9 -11 -13 -20 -8 -20 5 0 14 7 21 15 7 8 17 15
22 15 10 0 51 37 133 118 24 23 47 42 52 42 4 0 17 14 28 30 11 16 23 30 26
30 11 0 107 103 253 270 53 60 136 170 136 179 0 5 9 13 20 16 11 3 20 10 20
14 0 4 37 64 83 132 86 129 167 257 167 264 0 2 14 28 31 57 43 73 119 219
119 230 0 5 8 21 17 35 10 15 18 31 18 37 1 12 19 56 41 98 18 34 17 48 -1 24
-29 -39 -27 -5 5 79 19 47 38 85 43 85 11 0 5 -26 -18 -89 -8 -24 -14 -45 -12
-48 9 -8 87 220 134 387 8 30 22 77 30 104 12 35 14 69 10 125 -12 149 -74
272 -179 358 l-43 35 43 -41 c48 -48 52 -62 18 -81 -32 -16 -73 -6 -81 21 -5
15 -9 18 -15 9 -6 -9 -10 -8 -18 6 -6 10 -14 16 -18 12 -4 -4 -1 -15 7 -24 13
-16 12 -16 -8 -4 -12 8 -26 23 -32 35 -9 19 -10 19 -11 -5 -1 -23 -2 -23 -10
-5 -5 11 -9 15 -9 8 -1 -14 -61 -15 -78 0 -9 6 -13 6 -13 -3 0 -9 -7 -7 -20 5
-20 18 -21 18 -14 0 5 -13 4 -16 -4 -11 -7 4 -12 14 -12 21 0 11 -6 12 -26 5
-37 -14 -44 -13 -44 11 0 15 -5 19 -15 15 -10 -3 -15 1 -15 12 0 13 -2 14 -9
4 -7 -12 -13 -11 -38 1 -18 10 -34 12 -44 7 -10 -7 -18 -1 -29 22 -12 27 -22
33 -54 36 -25 2 -36 0 -31 -7 3 -6 15 -11 25 -11 10 0 22 -4 25 -10 9 -14 -20
-12 -60 4 -18 8 -36 12 -39 8 -3 -3 -6 -1 -6 4 0 5 -19 8 -42 6 -24 -2 -94 -3
-156 -3 -65 1 -122 -4 -134 -10 -12 -7 -18 -7 -14 -1 3 6 -2 9 -11 7 -10 -2
-76 -6 -148 -9 -71 -3 -179 -9 -240 -13 l-110 -7 70 -13 c39 -7 85 -16 102
-19 33 -7 93 11 93 27 0 5 5 9 11 9 8 0 8 -5 -1 -15 -7 -8 -10 -24 -7 -35 3
-11 2 -22 -3 -25 -4 -2 -10 -28 -14 -56 -9 -69 -36 -171 -48 -187 -8 -9 -14
-4 -27 19 -18 35 -55 50 -221 89 -161 38 -239 63 -233 74 4 6 -1 4 -11 -4 -10
-8 -22 -24 -27 -37 -11 -28 -29 -30 -29 -3 0 11 5 20 10 20 6 0 10 5 10 12 0
7 12 25 27 40 15 15 21 28 15 28 -7 0 -12 4 -12 9 0 5 9 7 20 4 12 -3 22 1 26
11 3 9 12 16 20 16 7 0 17 6 21 13 4 6 17 13 28 15 24 3 50 10 50 13 0 8 45 4
46 -5 0 -6 4 -2 9 9 5 11 9 14 9 7 1 -10 4 -10 15 0 7 7 11 19 9 26 -4 8 0 10
12 6 20 -8 35 11 35 44 l0 22 -920 0 -920 0 0 -1045z m1440 1004 c0 -6 -4 -7
-10 -4 -5 3 -10 11 -10 16 0 6 5 7 10 4 6 -3 10 -11 10 -16z m720 -92 c0 -61
-92 -397 -126 -459 -8 -14 -14 -31 -14 -38 0 -25 -159 -350 -172 -350 -4 0 -8
-6 -8 -13 0 -7 -10 -24 -22 -37 -13 -14 -32 -42 -42 -63 -11 -20 -25 -37 -33
-37 -20 0 -16 13 26 71 157 219 306 600 367 937 7 34 24 26 24 -11z m190 -6
c-1 -17 -17 -29 -29 -22 -7 5 -11 13 -8 18 7 10 37 13 37 4z m367 -43 c-3 -8
-6 -5 -6 6 -1 11 2 17 5 13 3 -3 4 -12 1 -19z m-366 -79 c-9 -22 -10 -22 -10
-3 -1 11 2 24 6 27 12 12 14 0 4 -24z m54 -41 c-10 -34 -21 -89 -26 -122 -5
-32 -16 -77 -24 -100 l-14 -41 0 45 c0 25 4 63 9 85 6 22 15 61 20 87 11 56
38 123 46 115 3 -3 -2 -34 -11 -69z m51 -17 l-6 -56 19 55 c16 47 19 51 20 25
1 -23 3 -27 11 -15 8 12 10 12 11 -5 1 -12 5 -6 13 17 6 20 15 40 20 45 14 13
-2 -57 -25 -107 -27 -59 -37 -82 -41 -100 -3 -8 -7 -10 -11 -4 -3 6 1 23 9 38
7 16 14 33 14 39 0 28 -38 -63 -44 -105 -4 -26 -12 -50 -18 -54 -7 -4 -8 3 -4
23 6 25 4 29 -14 29 -15 0 -23 -8 -27 -28 -3 -16 -8 -27 -10 -24 -7 7 17 126
44 213 29 94 48 101 39 14z m105 -40 c-16 -102 -13 -139 5 -72 8 30 15 65 16
78 1 13 6 23 9 23 4 0 12 12 18 28 10 25 11 24 6 -13 -3 -22 -7 -51 -10 -65
-4 -19 -3 -18 6 5 7 17 15 32 19 35 4 3 12 19 18 35 8 23 11 25 12 10 l1 -20
10 20 c9 19 6 -14 -7 -85 -3 -14 5 0 17 30 29 73 36 79 44 36 5 -25 2 -51 -9
-79 -18 -49 -20 -61 -7 -52 5 3 15 22 22 42 7 21 21 51 31 68 20 30 20 30 14
3 -3 -14 -8 -34 -12 -45 -3 -10 7 2 21 27 l26 45 -6 -35 -5 -35 21 30 c12 17
19 22 16 13 -11 -32 -28 -140 -24 -145 3 -2 8 11 12 29 9 42 54 129 55 106 0
-10 -7 -36 -16 -58 -9 -23 -14 -43 -11 -46 3 -3 13 17 22 45 17 51 35 75 35
46 0 -8 -7 -32 -15 -52 -26 -62 -15 -61 16 2 20 42 28 51 24 30 -3 -16 -8 -48
-10 -70 l-5 -40 14 30 c9 17 15 44 16 60 0 17 5 37 11 45 8 11 9 6 5 -20 -6
-32 -5 -33 8 -15 9 11 16 26 16 33 0 7 5 10 10 7 7 -4 7 -12 0 -25 -5 -10 -10
-31 -9 -47 1 -23 4 -18 17 22 8 28 17 45 19 38 3 -7 -7 -50 -21 -97 -27 -88
-34 -148 -15 -129 5 5 14 40 20 77 9 70 37 141 39 101 1 -17 3 -15 16 8 22 41
27 28 9 -23 -8 -24 -13 -46 -10 -49 3 -3 8 4 11 14 3 11 13 38 24 60 14 31 19
35 19 18 1 -21 -12 -59 -47 -131 -8 -17 -13 -34 -10 -37 3 -3 20 30 38 72 38
87 38 88 45 82 2 -3 -2 -27 -10 -54 -22 -72 -17 -88 7 -25 23 60 36 55 19 -7
-6 -21 -11 -47 -10 -58 0 -11 6 0 13 25 25 88 66 160 66 116 0 -8 -4 -18 -10
-21 -5 -3 -9 -16 -8 -28 1 -12 -2 -47 -5 -77 l-7 -55 26 55 c15 30 26 69 26
85 0 28 0 29 9 7 6 -15 5 -40 -2 -68 -6 -24 -9 -55 -7 -69 3 -14 1 -28 -3 -31
-5 -3 -9 -26 -10 -52 0 -26 -4 -65 -8 -87 l-9 -40 -1 45 c-1 33 -4 41 -11 30
-7 -10 -10 -11 -10 -2 0 7 7 15 15 18 9 4 15 19 15 36 0 16 -4 27 -9 24 -8 -5
-51 -89 -64 -126 -3 -8 -4 12 -2 45 2 33 2 50 -1 37 -3 -12 -9 -20 -14 -17 -4
3 -11 -13 -15 -35 -4 -22 -11 -40 -16 -40 -11 0 -12 -4 6 54 8 27 15 54 15 60
0 19 -27 -28 -40 -69 -7 -22 -17 -44 -23 -50 -7 -7 -8 -4 -2 10 13 36 35 120
34 135 0 11 -2 10 -8 -3 -4 -10 -11 -17 -15 -15 -5 2 -14 -6 -20 -17 -6 -11
-17 -29 -25 -40 -12 -18 -12 -16 -6 20 4 22 12 46 17 53 6 7 8 15 5 19 -4 3
-2 12 4 20 7 8 8 13 1 13 -11 0 -25 -33 -43 -100 -7 -25 -14 -38 -16 -28 -3 9
1 26 6 37 14 25 14 31 1 31 -5 0 -10 -7 -10 -15 0 -8 -4 -15 -9 -15 -5 0 -14
-12 -19 -27 -8 -21 -11 -23 -11 -9 -1 20 -1 20 -16 0 -13 -17 -14 -13 -15 46
l-2 65 -24 -50 -24 -50 0 35 -1 35 -14 -30 c-18 -39 -18 -14 0 60 8 33 15 67
14 75 0 21 -28 -60 -30 -85 l0 -20 -9 20 c-6 15 -9 16 -9 4 -1 -23 -51 -75
-51 -54 0 9 4 24 9 33 4 9 11 31 15 47 6 28 5 29 -9 11 -8 -11 -15 -16 -16
-10 0 5 -9 -9 -19 -31 -13 -28 -19 -34 -20 -20 -1 16 -4 14 -14 -10 l-12 -30
-7 32 c-4 19 0 49 9 75 18 52 9 44 -21 -19 l-23 -48 5 40 c2 22 9 53 14 69 5
16 9 41 8 55 -1 17 -6 8 -14 -26 -7 -29 -20 -59 -29 -68 -9 -9 -16 -26 -17
-38 0 -21 -1 -21 -9 -2 -7 16 -9 12 -15 -23 -4 -23 -10 -40 -13 -38 -2 3 3 42
11 88 23 121 25 149 13 145 -6 -2 -11 -8 -12 -13 -2 -30 -28 -129 -40 -152
-18 -35 -17 -9 1 43 8 22 15 47 14 55 0 20 -28 -30 -29 -51 0 -8 -7 -24 -15
-35 -13 -17 -13 -14 0 25 8 24 14 46 11 48 -5 6 -36 -62 -36 -80 0 -9 -5 -19
-11 -23 -8 -4 -9 1 -4 17 14 43 24 93 19 98 -8 8 -33 -33 -34 -55 0 -25 -29
-98 -36 -91 -2 2 0 17 6 33 l10 29 -20 -25 -21 -25 16 35 c9 19 20 43 26 53
22 41 99 228 100 244 0 11 3 13 6 6 2 -7 0 -44 -6 -82z m190 22 c-9 -16 -10
-16 -11 -1 0 9 3 25 7 35 7 16 8 17 11 1 2 -10 -1 -25 -7 -35z m740 -10 c7
-21 9 -59 6 -92 -6 -52 -56 -263 -72 -303 -9 -22 -24 -23 -31 -3 -5 13 -9 13
-22 3 -13 -11 -15 -10 -10 2 22 59 73 281 93 403 7 44 19 41 36 -10z m-1305
-39 c-4 -14 -9 -24 -12 -21 -3 2 -2 17 2 31 3 15 9 25 11 22 3 -3 2 -17 -1
-32z m1130 -109 c-9 -25 -16 -53 -16 -63 -1 -9 -7 -28 -15 -42 -21 -37 -19 -1
4 65 10 29 23 73 27 97 7 36 9 38 12 16 2 -15 -4 -47 -12 -73z m-35 -20 c-25
-62 -27 -41 -3 34 10 33 18 48 20 36 1 -11 -7 -42 -17 -70z m-1018 -8 c-21
-23 -46 -75 -84 -172 -13 -33 -27 -64 -31 -70 -11 -13 -10 -27 2 -20 6 3 10 1
10 -4 0 -6 -7 -11 -15 -11 -8 0 -15 -8 -15 -19 0 -10 -9 -21 -20 -24 -11 -3
-20 -1 -20 4 0 5 4 9 10 9 5 0 12 17 16 38 4 20 15 55 25 77 10 22 27 64 39
94 11 30 33 75 48 100 15 25 28 49 28 54 4 21 6 20 16 -6 8 -23 7 -32 -9 -50z
m62 18 c-4 -25 -10 -44 -12 -41 -3 3 -2 26 2 51 3 26 9 45 12 42 2 -3 1 -26
-2 -52z m82 -42 c-3 -10 -5 -4 -5 12 0 17 2 24 5 18 2 -7 2 -21 0 -30z m250
-25 c-3 -8 -6 -5 -6 6 -1 11 2 17 5 13 3 -3 4 -12 1 -19z m-412 -70 c-4 -18
-12 -37 -17 -43 -7 -7 -8 -2 -3 15 3 14 9 33 11 43 9 30 16 18 9 -15z m297 10
c-7 -7 -12 -8 -12 -2 0 14 12 26 19 19 2 -3 -1 -11 -7 -17z m139 -19 c-6 -16
-10 -18 -10 -7 -1 22 12 55 16 42 2 -6 -1 -22 -6 -35z m143 -13 c-3 -21 -8
-35 -11 -32 -2 2 -1 20 3 40 3 21 8 35 11 32 2 -2 1 -20 -3 -40z m-524 25 c0
-5 -7 -11 -15 -15 -15 -5 -20 5 -8 17 9 10 23 9 23 -2z m80 -21 c0 -6 9 -10
21 -10 11 0 34 -13 51 -29 26 -24 34 -27 49 -18 14 8 27 8 52 -1 18 -7 43 -12
55 -12 12 0 23 -8 27 -20 5 -15 12 -19 25 -15 10 3 22 1 25 -6 6 -8 9 -8 15 1
6 9 10 6 15 -9 7 -23 21 -28 28 -8 4 8 8 8 14 2 7 -9 39 -12 53 -5 19 9 60 4
60 -8 0 -9 7 -11 19 -7 13 4 23 0 31 -12 7 -11 13 -14 16 -7 6 13 44 7 44 -7
0 -5 7 -9 15 -9 8 0 15 -4 15 -9 0 -5 21 -3 47 5 60 18 63 18 63 -8 1 -21 2
-22 14 -5 17 22 22 22 29 -4 3 -12 10 -18 16 -14 6 3 11 -1 11 -9 0 -9 4 -16
10 -16 5 0 17 -16 26 -35 31 -66 62 -41 100 80 16 50 30 82 32 72 2 -10 9 -16
16 -14 23 9 39 -8 28 -29 -6 -11 -25 -64 -42 -119 -18 -55 -40 -118 -50 -140
-9 -22 -20 -48 -23 -58 -4 -9 -17 -22 -29 -27 -14 -5 -17 -9 -8 -10 9 -1 5 -5
-9 -11 -15 -6 -21 -14 -17 -25 3 -8 -1 -26 -10 -39 -9 -14 -13 -32 -10 -41 4
-10 -12 -53 -39 -106 -50 -99 -75 -139 -75 -120 0 6 -9 12 -20 12 -22 0 -28
-28 -10 -46 13 -13 -1 -49 -42 -111 -15 -23 -28 -44 -28 -48 0 -3 -17 -32 -38
-63 -22 -31 -61 -90 -87 -130 -55 -83 -120 -152 -141 -152 -9 0 -12 -5 -9 -10
9 -14 -34 -72 -47 -64 -6 4 -8 3 -5 -3 7 -12 -37 -53 -57 -53 -23 0 -27 29 -7
49 30 30 101 122 101 131 0 20 -34 41 -56 36 -20 -5 -24 -2 -24 15 0 22 -8 22
-55 3 -18 -7 -18 -6 3 20 12 16 22 36 21 45 0 12 -2 11 -9 -4 -11 -27 -37 -48
-50 -40 -14 8 -13 38 2 53 7 7 9 12 5 12 -3 0 -16 -10 -27 -22 -16 -17 -19
-18 -15 -5 5 12 2 17 -9 17 -9 0 -13 6 -10 14 4 11 -1 14 -21 12 -19 -3 -23 0
-16 7 20 20 11 30 -9 12 -18 -16 -25 -14 -21 8 1 5 -3 6 -8 3 -21 -13 -32 22
-21 65 8 29 8 45 1 52 -11 11 -16 -7 -12 -39 1 -7 -5 -14 -13 -17 -10 -4 -13
-1 -10 8 6 16 -20 48 -30 38 -3 -4 -6 6 -6 20 0 15 -4 27 -10 27 -5 0 -10 -5
-10 -11 0 -6 -6 -9 -12 -6 -7 2 -12 12 -10 21 2 10 -2 24 -8 31 -7 8 -9 19 -5
25 3 5 1 10 -4 10 -6 0 -11 -6 -12 -12 0 -7 -10 12 -22 42 -16 42 -22 50 -25
33 -6 -37 -22 -26 -22 15 0 39 -23 83 -36 70 -4 -4 -13 -3 -21 4 -16 13 -29 3
-36 -27 -3 -11 -5 -1 -6 22 0 23 -5 44 -10 47 -5 4 -7 -4 -5 -16 3 -14 -1 -10
-10 10 -8 17 -19 32 -23 32 -12 0 -35 104 -27 125 6 16 8 16 16 1 5 -9 14 -16
21 -16 7 0 35 -21 62 -45 28 -25 58 -48 68 -51 12 -4 16 -12 12 -25 -9 -27 9
-46 50 -53 31 -6 36 -11 35 -32 -1 -3 18 -15 42 -27 24 -12 44 -25 46 -29 2
-4 15 -5 29 -2 16 4 28 2 34 -7 6 -10 9 -11 9 -1 0 6 5 12 10 12 6 0 10 -7 10
-15 0 -8 9 -16 20 -16 11 -1 26 -2 33 -3 18 -1 40 -35 33 -51 -7 -20 4 -18 34
5 30 24 65 27 56 5 -3 -8 0 -15 6 -15 20 0 68 -53 68 -74 0 -12 5 -28 10 -36
9 -13 13 -11 30 10 11 14 20 19 20 12 0 -7 7 -20 15 -28 8 -9 18 -27 22 -42 7
-30 20 -42 45 -42 17 0 103 123 176 250 52 91 192 372 192 386 0 7 -8 17 -17
23 -10 5 -15 13 -10 17 4 4 16 -1 27 -11 22 -20 36 -15 27 9 -9 22 -75 38
-101 24 -31 -18 -45 -18 -54 -1 -11 18 -45 24 -54 9 -5 -6 -8 -2 -8 12 0 24
-15 30 -23 10 -4 -9 -14 -4 -31 15 -18 20 -26 23 -26 13 0 -22 -20 -20 -20 2
-1 15 -2 15 -15 -2 -13 -17 -15 -18 -15 -3 0 15 -13 21 -47 20 -8 -1 -13 12
-13 31 0 33 -23 76 -41 76 -6 0 -3 -10 5 -22 24 -33 19 -45 -7 -20 -26 24 -46
30 -28 8 8 -10 9 -16 1 -21 -5 -3 -10 -1 -10 5 0 6 -4 9 -9 5 -6 -3 -15 4 -21
15 -6 11 -15 18 -19 16 -4 -3 -17 2 -27 10 -10 9 -13 13 -6 9 6 -3 12 -1 12 4
0 15 -27 14 -33 -1 -3 -7 -6 -2 -7 12 -1 23 -2 24 -14 8 -16 -22 -29 -12 -15
13 7 15 6 17 -5 13 -10 -4 -16 2 -18 18 -2 15 -11 24 -27 26 -15 2 -21 0 -17
-7 11 -18 -2 -13 -24 9 -11 11 -20 24 -20 30 0 18 -40 32 -56 19 -12 -9 -22
-8 -52 7 -54 28 -61 40 -46 83 11 33 11 36 -7 39 -10 2 -19 8 -19 14 0 5 7 8
15 4 8 -3 15 -1 15 5 0 6 7 6 20 -1 11 -6 20 -15 20 -20z m237 8 c-3 -8 -6 -5
-6 6 -1 11 2 17 5 13 3 -3 4 -12 1 -19z m43 2 c0 -11 -2 -20 -4 -20 -2 0 -6 9
-9 20 -3 11 -1 20 4 20 5 0 9 -9 9 -20z m416 -26 c-4 -14 -9 -24 -12 -21 -3 2
-2 17 2 31 3 15 9 25 11 22 3 -3 2 -17 -1 -32z m-314 1 c4 -20 2 -23 -8 -14
-7 6 -10 17 -7 25 7 20 10 18 15 -11z m-285 0 c-4 -8 -2 -17 3 -20 6 -4 10
-12 10 -18 -1 -14 -23 22 -26 41 -1 6 2 12 8 12 6 0 8 -7 5 -15z m220 -17 c-3
-8 -6 -5 -6 6 -1 11 2 17 5 13 3 -3 4 -12 1 -19z m140 -10 c-3 -8 -6 -5 -6 6
-1 11 2 17 5 13 3 -3 4 -12 1 -19z m30 -25 c-3 -10 -5 -4 -5 12 0 17 2 24 5
18 2 -7 2 -21 0 -30z m136 -28 c-3 -9 -8 -14 -10 -11 -3 3 -2 9 2 15 9 16 15
13 8 -4z m-619 -41 c9 -3 16 -11 16 -16 0 -6 -6 -8 -14 -5 -8 3 -17 1 -20 -6
-2 -7 -5 -2 -5 11 -1 24 0 25 23 16z m-37 -66 c-3 -7 -5 -2 -5 12 0 14 2 19 5
13 2 -7 2 -19 0 -25z m-152 -60 c-21 -39 -52 -90 -69 -113 -17 -22 -44 -68
-59 -103 -30 -66 -48 -87 -22 -26 20 48 19 54 -5 24 -33 -42 -22 -8 15 47 19
29 35 55 35 58 0 3 15 27 33 53 18 26 48 69 66 95 18 27 35 46 38 43 3 -3 -11
-38 -32 -78z m1245 68 c0 -8 -5 -18 -10 -21 -6 -3 -19 -23 -30 -43 -27 -51
-25 -23 2 33 22 45 38 58 38 31z m-1290 -71 c-45 -58 -64 -73 -35 -27 34 53
67 93 72 88 3 -3 -13 -30 -37 -61z m67 -28 c-14 -25 -42 -63 -62 -84 -21 -21
-33 -29 -27 -18 11 22 78 123 94 143 21 25 18 3 -5 -41z m55 -5 c-15 -29 -35
-55 -44 -58 -10 -3 -18 -10 -18 -15 0 -14 -56 -131 -74 -154 -15 -19 -15 -18
-5 13 6 17 15 35 20 38 5 3 9 15 9 27 l-1 22 -19 -24 c-11 -13 -20 -34 -20
-47 0 -12 -5 -26 -12 -30 -8 -5 -9 -1 -5 12 7 18 7 18 -8 0 -31 -40 -14 4 20
50 19 27 53 75 75 107 44 62 99 122 106 115 2 -3 -9 -28 -24 -56z m204 10
c-12 -11 -18 7 -10 30 l8 23 4 -23 c2 -13 1 -26 -2 -30z m-129 11 c-3 -16 -9
-37 -12 -48 -5 -12 1 -9 15 10 l22 30 -5 -35 -6 -35 16 35 c9 19 18 30 20 23
2 -6 -3 -25 -11 -42 -9 -16 -16 -33 -16 -37 0 -12 40 44 56 78 l15 33 -6 -30
c-4 -16 -9 -45 -12 -62 -3 -18 -9 -30 -14 -28 -10 7 -29 -27 -29 -51 0 -23 30
16 59 76 l21 45 -5 -40 -5 -40 20 40 21 40 -5 -40 c-5 -36 -4 -37 6 -15 10 22
12 23 16 6 3 -15 6 -16 14 -5 10 15 6 -25 -7 -66 -3 -11 3 -4 14 15 15 27 20
30 21 15 0 -11 -6 -31 -13 -46 -16 -29 -47 -119 -42 -119 6 0 52 84 60 110 4
14 14 34 22 45 15 20 15 20 10 -2 -3 -13 -2 -23 2 -23 5 0 13 10 19 23 10 20
11 21 12 2 0 -18 2 -18 20 5 12 15 18 18 14 8 -3 -10 -1 -32 5 -49 9 -26 7
-39 -14 -83 -37 -78 -29 -81 10 -6 19 36 34 59 35 52 0 -7 -5 -23 -11 -34 -6
-11 -7 -18 -1 -14 5 3 15 19 22 36 7 16 16 30 21 30 5 0 0 -17 -11 -37 -11
-21 -20 -43 -20 -49 0 -12 -59 -60 -70 -57 -4 1 -13 -16 -19 -38 -11 -37 -51
-113 -51 -98 0 4 7 26 15 49 18 51 21 116 4 87 -6 -10 -9 -27 -6 -38 3 -10 1
-19 -4 -19 -5 0 -22 -26 -38 -57 -32 -62 -41 -65 -16 -6 21 50 18 65 -5 23
-26 -47 -25 -15 0 35 13 24 15 32 5 20 -9 -11 -28 -43 -42 -72 -15 -29 -28
-51 -30 -50 -4 5 28 91 38 101 5 6 9 17 9 25 0 11 -6 9 -20 -9 -11 -14 -20
-29 -20 -35 -1 -12 -39 -63 -40 -53 0 14 25 64 49 96 27 37 21 57 -7 22 -15
-18 -19 -20 -19 -7 0 10 4 17 9 17 5 0 6 5 2 11 -10 16 -52 -60 -60 -109 -3
-23 -11 -45 -16 -48 -14 -9 -2 43 28 131 32 91 46 145 41 159 -3 6 -8 -2 -12
-19 -4 -16 -13 -37 -20 -45 -7 -8 -30 -48 -50 -88 -21 -40 -40 -71 -42 -69 -2
3 5 20 16 38 10 19 22 49 26 67 4 18 18 53 32 77 19 34 21 44 9 39 -9 -3 -16
-11 -16 -18 0 -15 -80 -180 -85 -174 -2 2 7 35 20 73 27 76 26 96 -2 45 -24
-43 -54 -82 -60 -77 -2 3 10 28 26 56 17 28 38 66 46 84 16 31 15 31 -2 11
-10 -11 -26 -31 -36 -45 l-19 -24 17 28 c9 16 19 41 21 55 4 24 1 22 -22 -13
-14 -22 -34 -60 -45 -84 -11 -24 -22 -41 -25 -38 -3 3 4 23 15 46 12 22 21 44
21 48 -1 12 -40 -40 -40 -53 0 -6 -7 -18 -16 -25 -14 -12 -14 -9 1 26 29 69
29 69 17 61 -7 -4 -12 -12 -12 -17 0 -6 -7 -17 -15 -25 -8 -9 -15 -13 -15 -11
0 3 25 56 57 119 62 125 89 166 95 146 3 -8 9 -5 17 10 16 30 25 28 18 -5z
m163 5 c0 -7 -5 -20 -10 -28 -8 -12 -10 -9 -10 13 0 15 5 27 10 27 6 0 10 -6
10 -12z m17 -40 c-3 -7 -5 -2 -5 12 0 14 2 19 5 13 2 -7 2 -19 0 -25z m44 -25
c-9 -16 -10 -16 -11 -1 0 9 3 25 7 35 7 16 8 17 11 1 2 -10 -1 -25 -7 -35z
m-29 -5 c-7 -7 -12 -8 -12 -2 0 14 12 26 19 19 2 -3 -1 -11 -7 -17z m55 -25
c-3 -10 -5 -2 -5 17 0 19 2 27 5 18 2 -10 2 -26 0 -35z m35 -15 c-8 -8 -9 -4
-5 13 4 13 8 18 11 10 2 -7 -1 -18 -6 -23z m50 -30 c-7 -7 -12 -8 -12 -2 0 6
3 14 7 17 3 4 9 5 12 2 2 -3 -1 -11 -7 -17z m108 -22 c0 -3 -4 -8 -10 -11 -5
-3 -10 -1 -10 4 0 6 5 11 10 11 6 0 10 -2 10 -4z m531 -29 c-10 -9 -11 -8 -5
6 3 10 9 15 12 12 3 -3 0 -11 -7 -18z m-1591 -23 c0 -17 -26 -58 -70 -109 -39
-45 -176 -183 -154 -155 10 14 25 29 32 33 6 4 12 15 12 22 0 8 5 15 10 15 6
0 16 11 22 25 6 14 18 25 26 25 9 0 12 3 9 7 -4 3 3 17 15 31 22 22 22 24 6
36 -17 12 -17 14 0 30 10 9 28 16 40 16 12 0 23 8 27 20 8 24 25 27 25 4z
m1012 -46 c-45 -99 -39 -119 8 -30 23 42 29 49 25 27 l-6 -30 22 30 21 30 -6
-30 c-5 -30 -5 -29 10 4 l16 35 15 -33 c16 -31 15 -34 -10 -82 -34 -62 -26
-63 14 -1 l31 47 -6 -35 c-6 -34 -6 -34 9 -13 9 12 22 37 30 55 25 58 17 -2
-9 -64 -13 -32 -22 -58 -20 -58 2 0 20 33 40 73 26 53 33 63 28 37 -3 -19 -13
-47 -20 -62 -8 -16 -12 -28 -9 -28 2 0 16 21 29 48 14 26 25 41 26 33 0 -19
-40 -132 -53 -149 -5 -7 -8 -15 -5 -18 3 -3 16 12 28 33 13 21 25 32 27 26 3
-7 -5 -26 -16 -42 -12 -16 -21 -32 -21 -36 0 -9 -90 -145 -96 -145 -2 0 2 10
10 23 7 12 16 36 19 54 l6 32 -33 -37 c-18 -20 -45 -57 -59 -82 -15 -25 -27
-39 -27 -31 0 8 16 38 35 67 19 29 35 61 35 71 0 10 18 42 41 72 39 51 39 52
10 32 -16 -12 -33 -31 -37 -43 -3 -11 -20 -39 -38 -62 -17 -23 -39 -53 -49
-66 -17 -24 -17 -24 0 10 10 19 24 43 32 53 8 9 12 20 9 23 -7 6 -68 -69 -68
-84 0 -5 -7 -13 -16 -16 -17 -6 -13 1 22 49 29 40 60 112 40 96 -11 -9 -15 -9
-18 0 -2 7 -21 -11 -42 -39 -21 -29 -40 -52 -42 -52 -7 0 15 40 40 75 13 17
26 37 31 45 23 39 -30 -18 -60 -66 -18 -28 -39 -55 -47 -60 -10 -6 -11 -5 -2
7 17 22 76 129 71 129 -2 0 -23 -27 -47 -60 -24 -33 -45 -60 -47 -60 -7 0 37
79 47 85 5 3 10 12 10 18 -1 7 -21 -10 -47 -38 l-45 -50 26 47 c14 26 26 50
26 54 0 13 -31 -20 -46 -49 -9 -16 -18 -27 -20 -24 -8 7 64 137 101 182 17 22
34 45 36 50 2 6 15 28 29 49 30 49 38 32 12 -26z m-849 -39 c-58 -90 -97 -139
-110 -139 -9 0 -7 10 9 33 13 17 26 34 30 37 4 3 12 17 18 30 22 50 39 75 57
81 27 10 27 5 -4 -42z m1388 14 c-12 -20 -14 -14 -5 12 4 9 9 14 11 11 3 -2 0
-13 -6 -23z m-1030 -16 c-10 -9 -11 -8 -5 6 3 10 9 15 12 12 3 -3 0 -11 -7
-18z m834 -9 c-8 -41 -110 -254 -138 -288 -24 -31 -25 -33 49 120 34 69 67
142 75 163 16 46 23 48 14 5z m-1465 18 c0 -2 -8 -10 -17 -17 -16 -13 -17 -12
-4 4 13 16 21 21 21 13z m320 0 c0 -3 -12 -26 -26 -53 -18 -33 -24 -40 -19
-20 3 17 1 27 -7 27 -6 0 -1 11 12 25 21 22 40 32 40 21z m210 -20 c0 -3 -4
-8 -10 -11 -5 -3 -10 -1 -10 4 0 6 5 11 10 11 6 0 10 -2 10 -4z m855 -66 c-9
-18 -12 -30 -7 -26 5 3 15 19 22 36 7 16 16 30 21 30 8 0 -65 -148 -82 -164
-15 -16 -10 1 12 39 12 20 18 42 15 52 -4 9 1 32 11 50 10 19 19 29 21 24 2
-5 -4 -24 -13 -41z m-1425 25 c0 -8 -7 -15 -15 -15 -8 0 -15 -4 -15 -10 0 -5
-5 -10 -10 -10 -12 0 21 49 33 50 4 0 7 -7 7 -15z m613 0 c-3 -9 -8 -14 -10
-11 -3 3 -2 9 2 15 9 16 15 13 8 -4z m-271 -27 c-8 -8 -9 -4 -5 13 4 13 8 18
11 10 2 -7 -1 -18 -6 -23z m67 -20 c-1 -19 -3 -25 -6 -15 -3 13 -11 17 -23 14
-16 -4 -17 -2 -7 14 19 30 37 23 36 -13z m241 8 c0 -3 -4 -8 -10 -11 -5 -3
-10 -1 -10 4 0 6 5 11 10 11 6 0 10 -2 10 -4z m70 -49 c0 -2 -10 -12 -22 -23
l-23 -19 19 23 c18 21 26 27 26 19z m-576 -105 c-44 -42 -98 -101 -119 -129
-21 -29 -40 -51 -43 -49 -16 17 199 256 230 256 7 0 -23 -35 -68 -78z m102 53
c-18 -27 -8 -32 25 -15 27 15 24 -2 -7 -31 -31 -29 -59 -79 -44 -79 5 0 10 6
10 13 0 7 16 27 35 46 40 37 45 33 13 -12 l-22 -32 22 19 c33 29 26 5 -13 -47
-19 -25 -35 -49 -35 -53 0 -12 56 51 79 89 13 20 30 37 39 37 11 0 13 -3 6 -8
-12 -7 -58 -92 -50 -92 2 0 22 18 45 40 22 22 43 40 46 40 9 0 -11 -33 -35
-57 -11 -13 -19 -23 -16 -23 3 0 -5 -10 -17 -23 -12 -13 -26 -21 -31 -19 -5 3
-7 -2 -3 -11 4 -11 2 -14 -7 -11 -8 3 -17 1 -21 -5 -3 -6 -1 -11 5 -11 6 0 8
-6 4 -12 -3 -7 28 22 71 65 43 43 80 75 83 72 3 -3 -5 -16 -17 -29 -16 -17
-19 -25 -10 -28 9 -3 4 -16 -15 -41 -16 -21 -27 -39 -25 -42 3 -2 20 19 39 46
35 52 56 53 24 2 l-18 -28 22 19 c37 32 24 4 -19 -43 -22 -24 -38 -45 -35 -48
6 -6 53 47 89 100 27 39 28 40 21 12 -4 -16 -16 -43 -27 -58 -37 -54 -9 -38
34 18 24 32 45 53 47 47 2 -6 -20 -40 -48 -76 -28 -37 -49 -66 -47 -66 3 0 28
22 56 50 61 59 67 44 11 -30 -22 -29 -40 -55 -40 -57 0 -9 11 2 51 52 43 54
69 73 50 36 -6 -10 -7 -22 -3 -26 4 -5 1 -5 -5 -1 -8 5 -13 1 -13 -10 0 -10
-12 -31 -27 -47 -19 -20 -22 -26 -8 -17 11 7 36 32 55 56 19 24 36 41 39 39 2
-3 -2 -12 -9 -21 -20 -24 8 -39 32 -17 11 10 18 12 18 5 0 -7 -5 -12 -10 -12
-6 0 -13 -8 -17 -17 -3 -10 -20 -34 -37 -53 -17 -20 -8 -13 23 15 86 80 41 18
-54 -75 -48 -47 -103 -103 -122 -125 l-35 -40 28 50 c15 28 30 55 34 60 4 6
10 19 14 29 6 17 5 17 -11 5 -10 -8 -23 -21 -30 -30 -6 -9 -29 -29 -50 -45
l-38 -28 26 34 c39 53 44 69 12 35 -53 -55 -68 -61 -33 -12 18 26 37 47 42 47
4 0 8 6 8 14 0 7 7 19 15 26 9 7 13 15 11 17 -3 3 -20 -9 -38 -26 -18 -17 -36
-31 -40 -31 -4 0 -6 -6 -4 -12 1 -7 1 -10 -1 -6 -3 4 -17 0 -31 -9 -23 -14
-21 -10 10 23 31 32 35 42 26 58 -6 10 -7 16 -2 14 5 -3 20 6 34 20 14 14 18
20 8 13 -12 -8 -17 -9 -20 -1 -2 7 -24 -10 -49 -37 -25 -26 -57 -57 -70 -68
l-24 -20 20 25 c11 13 25 29 31 35 18 17 56 75 49 75 -4 0 -32 -26 -63 -57
-59 -62 -59 -57 2 20 52 65 40 70 -17 7 -63 -70 -67 -62 -7 14 27 35 50 66 50
69 0 8 -104 -63 -108 -74 -2 -5 -8 -9 -13 -9 -5 0 11 28 36 61 25 34 43 64 41
66 -4 4 -30 -23 -99 -102 -15 -16 -27 -25 -27 -18 0 7 6 16 14 20 19 12 91
114 74 108 -7 -3 -24 -21 -38 -40 -14 -19 -30 -36 -36 -39 -13 -5 44 94 73
127 10 12 -5 3 -32 -20 -28 -23 -61 -55 -74 -72 -13 -17 -26 -29 -29 -27 -2 3
9 22 25 43 17 21 39 51 49 68 l19 30 -35 -24 c-19 -13 -40 -31 -47 -39 -6 -8
-16 -12 -22 -11 -6 2 5 22 25 44 20 22 46 51 58 65 19 22 19 23 1 10 -11 -8
-28 -25 -38 -38 -28 -34 -91 -91 -95 -87 -3 2 13 26 34 52 64 78 70 92 15 35
-28 -29 -51 -51 -51 -48 0 14 84 126 120 161 40 38 41 30 4 -22 -9 -13 -14
-23 -11 -23 3 0 26 27 52 59 48 64 73 91 82 91 3 0 -2 -11 -11 -25z m1364 5
c0 -5 -5 -10 -11 -10 -5 0 -7 5 -4 10 3 6 8 10 11 10 2 0 4 -4 4 -10z m-430
-8 c0 -5 -7 -17 -16 -28 -8 -10 -14 -14 -11 -9 2 6 7 18 10 28 7 17 17 23 17
9z m-413 -34 c-3 -8 -6 -5 -6 6 -1 11 2 17 5 13 3 -3 4 -12 1 -19z m-250 -20
c-3 -7 -5 -2 -5 12 0 14 2 19 5 13 2 -7 2 -19 0 -25z m47 -4 c3 -8 2 -12 -4
-9 -6 3 -10 10 -10 16 0 14 7 11 14 -7z m788 -6 c-7 -7 -12 -8 -12 -2 0 14 12
26 19 19 2 -3 -1 -11 -7 -17z m-212 -3 c-7 -9 -15 -13 -19 -10 -3 3 1 10 9 15
21 14 24 12 10 -5z m-1380 -25 c0 -5 -6 -10 -14 -10 -7 0 -21 -15 -30 -34 -17
-35 -38 -58 -52 -55 -5 1 -17 -1 -27 -6 -39 -17 -24 5 40 58 69 57 83 65 83
47z m45 -20 c-10 -11 -20 -18 -23 -15 -7 6 18 35 31 35 5 0 2 -9 -8 -20z
m1518 5 c-3 -9 -8 -14 -10 -11 -3 3 -2 9 2 15 9 16 15 13 8 -4z m-2033 -35 c0
-5 -7 -10 -15 -10 -8 0 -15 5 -15 10 0 6 7 10 15 10 8 0 15 -4 15 -10z m-40
-10 c0 -5 -5 -10 -11 -10 -5 0 -7 5 -4 10 3 6 8 10 11 10 2 0 4 -4 4 -10z
m-25 -28 c-3 -3 -11 0 -18 7 -9 10 -8 11 6 5 10 -3 15 -9 12 -12z m505 4 c0
-3 -4 -8 -10 -11 -5 -3 -10 -1 -10 4 0 6 5 11 10 11 6 0 10 -2 10 -4z m1790
-14 c0 -12 -70 -86 -75 -80 -3 3 4 13 15 23 11 10 20 23 20 28 0 5 8 16 18 23
20 16 22 16 22 6z m-1836 -29 c-34 -54 -96 -99 -118 -86 -12 7 -10 10 10 20
18 8 22 8 17 0 -4 -7 11 5 33 27 80 78 87 83 58 39z m-427 11 c-3 -3 -12 -4
-19 -1 -8 3 -5 6 6 6 11 1 17 -2 13 -5z m326 -34 c-6 -23 -19 -26 -26 -6 -5
13 5 23 25 25 3 1 4 -8 1 -19z m37 11 c0 -5 -7 -11 -14 -14 -10 -4 -13 -1 -9
9 6 15 23 19 23 5z m-340 -11 c0 -5 -4 -10 -10 -10 -5 0 -10 5 -10 10 0 6 5
10 10 10 6 0 10 -4 10 -10z m-170 -4 c0 -3 -4 -8 -10 -11 -5 -3 -10 -1 -10 4
0 6 5 11 10 11 6 0 10 -2 10 -4z m760 -31 c-7 -9 -15 -13 -17 -11 -7 7 7 26
19 26 6 0 6 -6 -2 -15z m-40 -35 c-6 -12 -14 -19 -17 -17 -2 3 1 15 7 27 6 12
14 19 17 17 2 -3 -1 -15 -7 -27z m1534 -96 c-43 -66 -118 -171 -168 -234 -49
-63 -91 -117 -93 -119 -2 -2 -6 -2 -9 2 -4 3 0 13 7 21 46 47 159 194 159 205
0 5 6 14 13 18 12 8 50 58 72 95 26 44 90 136 93 133 2 -1 -32 -56 -74 -121z
m-2392 100 c-13 -9 -26 -13 -30 -9 -8 8 17 25 38 25 9 0 6 -6 -8 -16z m328
-15 c-6 -10 -15 -19 -20 -19 -16 0 -11 17 6 24 8 3 12 11 8 17 -4 8 -3 9 4 5
9 -5 9 -13 2 -27z m-66 -1 c-5 -8 -2 -9 10 -5 14 6 15 4 5 -15 -10 -19 -12
-20 -21 -5 -8 16 -4 37 8 37 3 0 2 -5 -2 -12z m-100 -14 c3 -8 2 -12 -4 -9 -6
3 -10 10 -10 16 0 14 7 11 14 -7z m-89 -14 c3 -5 -1 -10 -9 -10 -9 0 -16 5
-16 10 0 6 4 10 9 10 6 0 13 -4 16 -10z m726 -8 c-7 -2 -18 1 -23 6 -8 8 -4 9
13 5 13 -4 18 -8 10 -11z m169 14 c0 -24 -15 -35 -41 -29 -22 4 -34 1 -45 -13
-14 -18 -15 -18 -4 3 5 12 18 27 28 32 17 10 62 15 62 7z m744 -8 c-4 -7 -18
-27 -30 -45 -37 -49 -28 -50 17 -2 22 24 33 33 25 19 -9 -13 -16 -31 -16 -40
-1 -19 -34 -60 -49 -60 -6 0 -11 -4 -11 -10 0 -10 -58 -71 -99 -105 -22 -18
-22 -16 5 19 28 38 28 39 4 23 -14 -9 -34 -28 -44 -42 -11 -15 -29 -31 -40
-37 -14 -7 -10 1 12 24 19 21 30 41 27 50 -4 10 10 27 41 51 25 20 56 49 68
65 26 34 88 102 93 102 2 0 1 -6 -3 -12z m-1469 -31 c-9 -5 -19 -6 -22 -3 -4
3 -1 6 5 6 7 0 9 7 5 18 -6 15 -5 15 11 3 16 -13 16 -15 1 -24z m539 -2 c-4
-10 -19 -15 -43 -14 l-36 1 40 13 c22 8 41 14 42 14 1 1 0 -6 -3 -14z m-584
-5 c-8 -5 -10 -10 -4 -10 17 0 14 -51 -3 -57 -8 -3 -20 0 -26 7 -10 10 -8 12
7 6 14 -5 17 -2 12 9 -3 8 0 15 6 15 7 0 7 4 -1 13 -11 14 -5 27 13 27 6 0 4
-5 -4 -10z m744 -12 c23 -33 20 -45 -14 -50 -32 -5 -44 17 -15 28 8 4 15 11
15 16 0 6 -7 8 -15 4 -9 -3 -15 0 -15 9 0 22 27 18 44 -7z m84 -18 c7 0 12 -7
12 -15 0 -8 6 -15 14 -15 16 0 52 -50 48 -67 -4 -18 11 -43 57 -93 31 -34 49
-45 83 -50 26 -3 42 -11 40 -18 -1 -7 2 -12 8 -12 5 0 10 -6 10 -14 0 -9 7
-12 20 -9 14 4 20 0 20 -10 0 -13 34 -34 50 -30 3 1 5 -17 5 -39 0 -33 4 -42
22 -49 13 -5 23 -13 23 -19 0 -5 11 -12 25 -16 14 -3 25 -10 25 -14 0 -5 10
-10 23 -12 16 -2 21 -9 20 -26 -2 -14 3 -22 12 -22 8 0 15 -7 15 -15 0 -9 9
-15 24 -15 34 0 40 -15 22 -52 -21 -40 -20 -51 4 -73 19 -17 21 -16 74 26 30
24 119 108 196 187 78 79 145 141 148 138 9 -10 -21 -88 -43 -112 -11 -12 -33
-36 -48 -53 -15 -18 -32 -29 -37 -26 -6 4 -10 -1 -10 -10 0 -10 -5 -13 -12 -9
-6 4 -8 3 -5 -3 9 -15 -246 -252 -335 -310 -44 -29 -82 -53 -85 -53 -3 0 -2 7
1 16 3 8 2 12 -4 9 -6 -3 -10 -14 -11 -23 0 -12 -3 -9 -10 7 -7 18 -6 28 6 41
23 26 18 49 -15 68 -27 15 -35 34 -31 69 1 6 -3 14 -9 18 -5 3 -10 -2 -10 -12
0 -11 -7 -28 -15 -39 -13 -17 -14 -17 -15 -2 0 9 5 20 10 23 12 7 14 26 3 24
-21 -3 -31 3 -36 22 -3 12 -10 18 -16 14 -17 -10 -13 11 4 25 8 7 15 19 15 26
0 8 -6 11 -15 8 -11 -5 -15 2 -15 27 0 31 -1 32 -15 13 -14 -18 -14 -18 -15 5
0 16 -4 21 -15 18 -11 -5 -12 -1 -5 19 13 34 13 37 -6 30 -14 -5 -15 -4 -4 9
11 13 8 14 -19 9 -25 -5 -31 -3 -31 11 0 11 -5 15 -15 11 -13 -5 -13 -1 0 31
8 20 13 38 10 41 -3 3 -5 1 -5 -4 0 -5 -10 -20 -21 -34 -19 -24 -20 -24 -9 -2
7 15 9 39 4 65 l-7 42 -13 -30 c-7 -16 -13 -23 -14 -15 0 10 -6 6 -16 -10 -11
-17 -13 -19 -9 -5 14 44 15 83 3 147 l-13 68 -30 -16 c-17 -8 -25 -10 -18 -3
6 6 21 16 34 23 26 13 39 39 15 30 -12 -4 -20 4 -31 30 -15 36 -45 50 -45 21
0 -8 -4 -15 -10 -15 -5 0 -10 9 -10 21 0 11 -3 18 -7 16 -5 -3 -6 20 -5 50 l4
55 22 -21 c12 -12 28 -21 34 -21z m37 30 c-3 -5 -10 -10 -16 -10 -5 0 -9 5 -9
10 0 6 7 10 16 10 8 0 12 -4 9 -10z m-958 -22 c-2 -7 3 -19 12 -26 14 -10 10
-12 -24 -10 -30 2 -41 8 -43 22 -3 15 1 18 22 14 14 -3 26 -1 26 3 0 5 3 9 6
9 3 0 4 -6 1 -12z m155 3 c-8 -4 -13 -12 -12 -17 1 -5 -4 -10 -11 -13 -7 -2
-9 1 -5 8 4 6 1 11 -6 12 -7 0 -4 4 7 9 26 11 44 12 27 1z m1498 -21 c-12 -16
-16 -30 -10 -30 7 0 8 -6 0 -19 -17 -33 -11 -33 21 1 18 18 26 25 19 16 -14
-21 -1 -24 20 -5 8 6 7 3 -3 -9 -21 -25 -22 -41 -2 -24 26 22 16 -4 -15 -38
-42 -46 -38 -53 7 -11 38 36 37 27 -5 -31 -26 -35 -26 -35 -2 -15 13 11 37 33
53 49 38 38 46 27 10 -15 -53 -64 -57 -74 -10 -29 53 50 58 48 21 -13 l-25
-42 30 35 c17 19 31 38 31 43 0 4 5 7 10 7 6 0 0 -17 -13 -37 -38 -62 -40 -70
-8 -33 35 41 41 33 9 -13 l-21 -32 38 35 c64 59 25 8 -73 -96 -51 -54 -90 -90
-86 -79 4 11 10 22 13 25 8 7 45 61 55 80 4 8 -31 -25 -79 -74 -98 -101 -124
-113 -34 -16 93 102 90 114 -5 20 -47 -46 -86 -82 -86 -78 0 3 29 37 65 74 68
72 91 113 30 54 -32 -31 -51 -32 -22 -1 10 11 9 12 -3 5 -8 -5 -19 -9 -25 -9
-5 -1 -9 -6 -8 -13 2 -7 -1 -12 -6 -12 -6 0 -24 -15 -41 -32 -29 -30 -28 -27
14 47 45 79 46 79 11 40 -19 -22 -35 -43 -35 -46 0 -4 -7 -9 -14 -12 -10 -4
-13 -1 -9 9 3 7 9 14 13 14 4 0 17 15 28 33 11 19 27 46 37 60 9 15 13 27 8
27 -4 0 -16 -15 -26 -32 -23 -42 -107 -137 -107 -121 0 6 7 19 16 28 20 20 64
83 64 92 0 4 -19 -11 -41 -32 l-42 -40 40 55 c54 76 57 81 39 74 -9 -3 -16
-10 -16 -14 0 -4 -11 -19 -25 -34 -13 -15 -29 -35 -35 -46 -6 -11 -16 -20 -22
-20 -6 0 -3 9 7 20 22 24 13 38 -12 20 -10 -8 32 36 92 96 61 60 119 122 128
137 10 15 22 25 27 22 5 -3 11 -1 15 5 3 5 8 10 11 10 3 0 -4 -13 -16 -30z
m-1025 -26 c-23 -19 -25 -22 -7 -14 18 9 26 8 37 -4 14 -13 13 -16 -2 -26 -16
-10 -15 -11 4 -7 l23 5 -23 -28 c-22 -29 -53 -43 -69 -34 -5 3 -4 12 3 20 9
11 8 14 -8 14 -17 0 -22 19 -14 62 1 10 75 47 81 42 2 -3 -9 -16 -25 -30z
m430 16 c-3 -5 -11 -10 -16 -10 -6 0 -7 5 -4 10 3 6 11 10 16 10 6 0 7 -4 4
-10z m-1108 -41 c-3 -10 -2 -19 3 -21 4 -2 0 -10 -9 -20 -15 -15 -16 -13 -17
27 -1 33 3 42 13 38 8 -3 13 -14 10 -24z m2353 27 c0 -16 -50 -91 -90 -137
-52 -57 -68 -56 -25 2 14 19 28 42 31 52 4 9 10 17 14 17 4 0 17 16 29 35 17
29 41 47 41 31z m-2263 -26 c3 -10 2 -11 -4 -4 -4 7 -19 14 -33 17 -22 4 -21
5 4 4 17 -1 31 -9 33 -17z m153 4 c0 -2 -7 -4 -15 -4 -8 0 -15 4 -15 10 0 5 7
7 15 4 8 -4 15 -8 15 -10z m-165 -23 c3 -5 -2 -16 -10 -25 -13 -13 -12 -15 12
-18 26 -3 47 -28 23 -28 -6 0 -8 5 -5 10 7 11 -8 14 -18 4 -10 -10 4 -33 18
-28 7 3 16 0 21 -7 5 -8 3 -10 -7 -5 -8 4 -7 1 3 -6 12 -10 14 -18 6 -31 -14
-26 -1 -56 23 -52 11 2 17 0 14 -6 -4 -5 -12 -9 -18 -9 -7 0 -14 -12 -15 -27
-1 -16 -13 -36 -27 -46 -14 -10 -22 -24 -19 -29 4 -7 2 -8 -5 -4 -7 4 -9 16
-6 27 5 14 2 20 -7 18 -24 -3 -38 1 -38 11 0 6 11 10 24 10 16 0 32 11 46 30
12 17 16 30 10 30 -6 0 -8 4 -5 10 3 6 -1 7 -10 4 -10 -4 -15 -14 -12 -25 3
-11 1 -19 -4 -19 -5 0 -9 11 -9 24 0 13 -5 26 -11 28 -8 3 -7 8 2 18 8 8 14
21 13 28 -1 6 -2 21 -3 31 0 11 -8 27 -17 35 -8 9 -11 16 -5 16 6 0 11 9 11
20 0 21 14 27 25 11z m1055 5 c0 -3 -4 -8 -10 -11 -5 -3 -10 -1 -10 4 0 6 5
11 10 11 6 0 10 -2 10 -4z m-962 -31 c-3 -3 -9 2 -12 12 -6 14 -5 15 5 6 7 -7
10 -15 7 -18z m692 10 c0 -2 -25 -23 -56 -46 -34 -26 -51 -45 -44 -49 7 -4 -6
-16 -34 -29 -48 -24 -82 -20 -49 5 17 13 17 13 0 14 -13 0 -17 6 -15 22 2 16
16 27 51 40 26 10 47 14 47 10 0 -8 -29 -25 -60 -35 -8 -3 -3 -6 11 -6 17 -1
48 14 80 39 49 37 69 47 69 35z m430 -20 c-7 -9 -15 -13 -17 -11 -7 7 7 26 19
26 6 0 6 -6 -2 -15z m-125 -5 c3 -5 1 -10 -4 -10 -6 0 -11 5 -11 10 0 6 2 10
4 10 3 0 8 -4 11 -10z m-1125 -40 c9 -16 8 -18 -5 -14 -8 3 -13 10 -10 14 3 5
-1 11 -7 13 -10 4 -10 6 -1 6 7 1 17 -8 23 -19z m130 11 c0 -6 -4 -13 -10 -16
-5 -3 -10 1 -10 9 0 9 5 16 10 16 6 0 10 -4 10 -9z m1025 -1 c-3 -5 -13 -10
-21 -10 -8 0 -12 5 -9 10 3 6 13 10 21 10 8 0 12 -4 9 -10z m25 -25 c0 -8 -4
-15 -10 -15 -5 0 -7 7 -4 15 4 8 8 15 10 15 2 0 4 -7 4 -15z m-1584 -23 c-17
-16 -18 -16 -5 5 7 12 15 20 18 17 3 -2 -3 -12 -13 -22z m1194 18 c0 -5 -4
-10 -10 -10 -5 0 -10 5 -10 10 0 6 5 10 10 10 6 0 10 -4 10 -10z m530 1 c0 -5
-7 -11 -14 -14 -10 -4 -13 -1 -9 9 6 15 23 19 23 5z m-1630 -5 c0 -2 -7 -7
-16 -10 -8 -3 -12 -2 -9 4 6 10 25 14 25 6z m275 -17 c2 -9 -3 -16 -9 -16 -7
0 -13 9 -13 19 -2 23 19 19 22 -3z m1135 11 c0 -5 -7 -7 -15 -4 -8 4 -15 8
-15 10 0 2 7 4 15 4 8 0 15 -4 15 -10z m120 0 c0 -5 -4 -10 -10 -10 -5 0 -10
5 -10 10 0 6 5 10 10 10 6 0 10 -4 10 -10z m-1270 -57 c12 -10 12 -12 1 -13
-18 0 -40 30 -40 55 0 17 2 17 12 -5 6 -14 18 -30 27 -37z m1290 37 c0 -5 -5
-10 -11 -10 -5 0 -7 5 -4 10 3 6 8 10 11 10 2 0 4 -4 4 -10z m-1702 -16 c-11
-11 -23 -14 -39 -8 l-24 8 25 7 c46 13 56 11 38 -7z m97 6 c11 -5 14 -9 7 -9
-8 -1 -28 -8 -45 -16 -39 -18 -114 -35 -122 -27 -13 13 -3 18 27 14 22 -3 35
0 44 13 7 10 24 18 38 18 14 0 23 3 20 8 -6 11 4 10 31 -1z m359 -5 c-4 -8 -8
-15 -10 -15 -2 0 -4 7 -4 15 0 8 4 15 10 15 5 0 7 -7 4 -15z m1876 11 c0 -10
-121 -154 -172 -206 -99 -100 -110 -96 -13 6 5 6 46 54 90 107 70 84 95 108
95 93z m-2404 -23 c-11 -11 -46 -14 -46 -3 0 6 12 10 27 10 14 0 23 -3 19 -7z
m634 -3 c0 -5 -4 -10 -10 -10 -5 0 -10 5 -10 10 0 6 5 10 10 10 6 0 10 -4 10
-10z m-645 -30 c3 -5 1 -10 -4 -10 -6 0 -11 5 -11 10 0 6 2 10 4 10 3 0 8 -4
11 -10z m520 -10 c19 -8 19 -9 -2 -9 -12 -1 -25 4 -28 9 -7 12 2 12 30 0z
m1006 -27 c-8 -15 -10 -15 -11 -2 0 17 10 32 18 25 2 -3 -1 -13 -7 -23z m359
7 c0 -5 -5 -10 -11 -10 -5 0 -7 5 -4 10 3 6 8 10 11 10 2 0 4 -4 4 -10z m-373
-62 c-3 -7 -5 -2 -5 12 0 14 2 19 5 13 2 -7 2 -19 0 -25z m613 19 c0 -2 -16
-19 -37 -38 l-36 -34 29 37 c24 32 44 47 44 35z m-250 -31 c0 -3 -4 -8 -10
-11 -5 -3 -10 -1 -10 4 0 6 5 11 10 11 6 0 10 -2 10 -4z m-1435 -27 c-22 -5
-70 -19 -108 -31 -37 -12 -70 -19 -72 -16 -11 11 138 56 185 56 l35 0 -40 -9z
m-35 -34 c-19 -7 -42 -13 -50 -13 -8 0 1 6 20 13 19 7 42 13 50 13 8 0 -1 -6
-20 -13z m225 6 c10 -17 -12 -21 -25 -6 -10 12 -10 15 3 15 9 0 18 -4 22 -9z
m921 -18 c-10 -10 -19 5 -10 18 6 11 8 11 12 0 2 -7 1 -15 -2 -18z m644 23 c0
-2 -8 -10 -17 -17 -16 -13 -17 -12 -4 4 13 16 21 21 21 13z m-1672 -41 c2 -21
-2 -35 -9 -35 -8 0 -8 -4 0 -14 10 -12 4 -16 -36 -21 -26 -3 -61 -8 -78 -11
-24 -3 -26 -2 -10 5 11 5 37 13 59 16 21 3 36 9 33 12 -7 7 -119 -17 -134 -29
-7 -5 -18 -8 -25 -5 -15 6 42 32 115 52 l52 15 -50 -6 c-27 -3 -65 -12 -84
-20 -18 -8 -41 -14 -50 -13 -26 1 37 26 119 48 85 22 56 28 -35 7 -66 -16 -89
-13 -29 3 148 40 159 39 162 -4z m1962 0 c-7 -8 -17 -15 -23 -15 -6 0 -31 -19
-56 -42 -40 -38 -41 -29 -2 12 47 50 117 89 81 45z m-2360 -19 c0 -28 -14 -42
-53 -51 -33 -9 -37 9 -4 20 19 7 18 8 -15 14 -59 10 -29 37 45 40 22 1 27 -3
27 -23z m97 18 c-3 -3 -12 -4 -19 -1 -8 3 -5 6 6 6 11 1 17 -2 13 -5z m48 -34
c-3 -5 -12 -10 -18 -10 -7 0 -6 4 3 10 19 12 23 12 15 0z m5 -30 c-8 -5 -22
-9 -30 -9 -10 0 -8 3 5 9 27 12 43 12 25 0z m280 -20 c0 -5 -6 -10 -12 -10 -7
0 -24 -3 -38 -6 -22 -4 -21 -3 5 10 37 18 45 19 45 6z m-438 -24 c-2 -10 4
-28 12 -41 10 -15 16 -47 16 -85 0 -50 4 -65 23 -84 13 -13 29 -25 37 -28 9
-3 11 -9 5 -19 -11 -16 -7 -139 5 -154 4 -5 11 -25 15 -44 4 -19 14 -41 21
-49 8 -7 12 -18 9 -23 -4 -5 -1 -9 4 -9 6 0 11 -10 11 -22 0 -13 7 -31 15 -41
7 -11 11 -25 9 -32 -3 -7 0 -16 6 -20 9 -6 9 -9 -1 -15 -9 -6 -10 -12 -2 -22
6 -7 11 -26 11 -42 0 -15 5 -32 13 -36 10 -7 10 -11 0 -24 -11 -13 -11 -16 2
-16 35 0 28 -70 -8 -84 -10 -4 -15 -19 -15 -50 0 -27 -5 -48 -13 -53 -8 -4
-16 -16 -20 -26 -4 -9 -18 -22 -32 -27 -30 -12 -85 -13 -69 -2 23 15 23 41 1
48 -37 13 -51 13 -64 2 -10 -8 -13 -2 -13 29 0 25 -6 44 -19 55 -19 16 -19 68
0 68 5 0 9 6 9 14 0 7 7 19 15 26 17 14 20 30 5 30 -5 0 -10 -6 -10 -12 -1
-18 -60 -95 -60 -77 0 8 7 27 15 43 8 15 13 31 10 35 -2 4 2 19 9 33 10 19 11
29 3 37 -9 9 -8 17 1 31 18 29 15 32 -13 14 -20 -13 -25 -14 -23 -3 2 8 7 17
12 21 5 3 17 28 27 55 l19 48 -35 -40 c-19 -22 -34 -35 -35 -29 0 5 5 15 12
22 7 7 9 12 4 12 -4 0 4 10 17 23 17 14 27 37 30 65 6 48 -7 58 -16 12 -4 -18
-13 -30 -22 -30 -21 0 -19 6 15 53 32 46 46 94 31 116 -14 21 -34 2 -28 -27 5
-27 -10 -72 -25 -72 -13 0 -9 16 7 30 8 7 15 17 15 22 0 5 -7 2 -16 -6 -8 -9
-19 -14 -24 -11 -9 6 -2 44 11 61 5 6 6 14 3 17 -4 3 5 12 19 18 28 13 56 69
34 69 -20 0 -38 -16 -35 -30 2 -7 -2 -14 -9 -17 -24 -9 -6 24 35 65 43 43 49
56 32 67 -5 3 -10 -1 -10 -9 0 -9 -4 -16 -10 -16 -5 0 -10 5 -10 11 0 5 -4 8
-9 5 -7 -5 -8 31 -1 44 2 3 4 12 4 20 2 22 -18 32 -26 12 -6 -15 -7 -14 -7 4
-1 11 5 26 12 33 10 11 9 14 -1 18 -10 4 -10 8 -1 19 9 11 8 14 -2 15 -8 0 0
7 16 14 36 17 51 14 47 -9z m185 18 c-3 -3 -12 -4 -19 -1 -8 3 -5 6 6 6 11 1
17 -2 13 -5z m-110 -10 c-3 -3 -12 -4 -19 -1 -8 3 -5 6 6 6 11 1 17 -2 13 -5z
m241 -1 c-10 -2 -26 -2 -35 0 -10 3 -2 5 17 5 19 0 27 -2 18 -5z m-278 -13 c0
-5 -4 -10 -10 -10 -5 0 -10 5 -10 10 0 6 5 10 10 10 6 0 10 -4 10 -10z m396
-1 c4 -7 -1 -16 -10 -21 -23 -13 -20 -31 4 -25 11 3 20 1 20 -4 0 -5 7 -9 15
-9 9 0 12 -6 9 -15 -5 -11 1 -15 21 -15 27 0 28 0 10 -20 -10 -11 -14 -20 -10
-20 5 0 0 -6 -11 -14 -18 -14 -18 -15 6 -25 14 -5 21 -10 15 -11 -5 0 -4 -4 4
-9 12 -8 12 -12 2 -24 -8 -11 -9 -17 -1 -22 6 -3 8 -11 5 -16 -4 -5 1 -9 9 -9
21 0 20 -10 -1 -26 -12 -9 -14 -13 -5 -14 7 0 10 -4 7 -10 -3 -5 3 -10 15 -10
18 0 19 -3 9 -21 -8 -16 -8 -20 0 -14 7 4 20 4 29 0 15 -6 15 -8 -3 -21 -17
-13 -18 -16 -5 -24 12 -8 11 -10 -5 -10 -11 0 -27 -5 -35 -10 -10 -6 -3 -7 24
-3 26 4 37 3 33 -4 -4 -6 1 -14 11 -18 16 -6 16 -7 -1 -20 -12 -9 -15 -15 -7
-20 6 -4 9 -13 6 -21 -3 -8 0 -14 6 -14 7 0 7 -4 -1 -14 -13 -15 -11 -37 4
-48 6 -5 4 -12 -5 -18 -11 -7 -7 -10 20 -11 35 0 35 -1 -15 -18 -27 -10 -85
-24 -128 -31 -43 -7 -80 -17 -83 -21 -3 -5 -17 -9 -31 -9 -29 0 -28 7 3 13 10
2 26 7 34 10 8 3 43 13 78 23 34 9 61 19 58 21 -2 3 -32 -3 -66 -11 -72 -19
-70 -18 -70 -8 0 5 23 14 51 21 43 11 49 15 34 24 -13 7 -27 5 -52 -7 -43 -20
-60 -21 -43 -2 6 8 40 24 76 36 35 12 66 26 69 31 8 12 -2 11 -59 -6 -27 -8
-61 -15 -75 -15 -24 0 -24 1 -5 15 10 8 40 17 66 21 31 4 45 10 42 19 -4 9
-26 6 -91 -12 -47 -13 -93 -22 -102 -20 -9 2 4 8 29 15 53 13 137 40 165 53
18 8 17 9 -5 5 -36 -6 -132 -32 -154 -41 -13 -6 -17 -5 -13 3 4 6 22 14 40 17
17 4 37 11 43 16 6 5 29 16 50 24 l39 15 -50 -6 c-27 -3 -62 -14 -76 -25 -15
-10 -33 -19 -40 -19 -7 0 -5 6 7 14 10 8 19 20 19 27 0 8 25 18 65 26 97 20
95 23 -12 16 -54 -3 -98 -3 -98 1 0 3 24 18 53 31 l52 25 -40 -4 c-22 -3 -56
-1 -75 3 -36 9 -34 10 35 15 59 5 112 21 98 29 -6 4 -23 3 -38 -3 -40 -15 -52
-12 -26 6 17 12 20 19 11 24 -8 5 5 11 31 15 47 8 87 24 59 24 -17 1 -40 -5
-180 -42 -52 -14 -96 -24 -98 -22 -2 1 50 19 115 40 65 20 123 38 128 41 19 8
-50 -4 -120 -21 -38 -9 -81 -19 -94 -22 -17 -4 -22 -2 -17 6 4 6 15 11 24 11
9 1 33 10 52 21 l35 20 -43 -6 c-29 -3 -41 -2 -37 5 3 5 14 10 23 10 9 0 51 9
92 20 l75 20 -55 -4 -55 -5 35 16 c73 33 82 37 73 40 -5 2 -41 -7 -80 -20 -40
-13 -69 -19 -66 -13 4 6 -1 6 -13 2 -38 -16 -86 -27 -91 -22 -3 3 22 13 56 22
64 18 80 40 34 47 -24 3 -22 5 16 12 40 7 89 40 78 51 -2 3 -16 0 -31 -6 -15
-5 -69 -10 -119 -9 l-92 1 132 17 c72 9 135 20 139 24 11 11 32 8 40 -4z
m1004 -34 c-7 -8 -18 -15 -24 -15 -6 0 -2 7 8 15 25 19 32 19 16 0z m-1375 -5
c18 -8 17 -9 -7 -9 -15 -1 -30 4 -33 9 -7 12 12 12 40 0z m2053 -67 c-40 -36
-100 -88 -133 -115 -33 -26 -67 -54 -75 -62 -24 -21 -44 -31 -36 -18 4 7 42
39 84 71 42 32 109 89 147 125 39 36 73 65 78 66 4 0 -26 -30 -65 -67z m-1951
41 c-3 -3 -12 -4 -19 -1 -8 3 -5 6 6 6 11 1 17 -2 13 -5z m-60 -10 c-3 -3 -12
-4 -19 -1 -8 3 -5 6 6 6 11 1 17 -2 13 -5z m-17 -24 c0 -5 -7 -10 -16 -10 -8
0 -12 5 -9 10 3 6 10 10 16 10 5 0 9 -4 9 -10z m140 6 c0 -2 -11 -6 -25 -8
-13 -3 -22 -1 -19 3 5 9 44 13 44 5z m20 -16 c-8 -5 -19 -10 -25 -10 -5 0 -3
5 5 10 8 5 20 10 25 10 6 0 3 -5 -5 -10z m-430 -4 c0 -2 -7 -7 -16 -10 -8 -3
-12 -2 -9 4 6 10 25 14 25 6z m297 -12 c-3 -3 -12 -4 -19 -1 -8 3 -5 6 6 6 11
1 17 -2 13 -5z m463 -14 c-20 -13 -33 -13 -25 0 3 6 14 10 23 10 15 0 15 -2 2
-10z m-750 -5 c0 -2 -10 -9 -22 -15 -22 -11 -22 -10 -4 4 21 17 26 19 26 11z
m290 -5 c0 -5 -5 -10 -11 -10 -5 0 -7 5 -4 10 3 6 8 10 11 10 2 0 4 -4 4 -10z
m1393 -39 c-18 -15 -33 -31 -33 -36 0 -5 11 2 25 15 14 13 27 21 30 18 7 -6
-93 -98 -106 -98 -14 0 -10 12 9 26 15 12 13 13 -15 8 -39 -8 -43 3 -7 16 15
6 22 14 18 22 -4 6 -3 8 4 5 5 -4 29 9 52 28 24 20 45 33 49 29 3 -3 -9 -18
-26 -33z m-1393 9 c0 -5 -7 -10 -16 -10 -8 0 -12 5 -9 10 3 6 10 10 16 10 5 0
9 -4 9 -10z m10 -30 c0 -5 -9 -10 -19 -10 -11 0 -23 5 -26 10 -4 6 5 10 19 10
14 0 26 -4 26 -10z m88 3 c-10 -2 -26 -2 -35 0 -10 3 -2 5 17 5 19 0 27 -2 18
-5z m1360 -2 c-6 -16 -102 -91 -117 -91 -11 0 -10 5 4 20 10 11 22 20 27 20 5
0 23 13 41 30 31 29 52 39 45 21z m-44 -75 c-22 -20 -43 -36 -48 -36 -5 0 10
18 35 39 24 22 45 38 47 36 3 -2 -13 -20 -34 -39z m76 14 c0 -12 -82 -70 -91
-64 -5 2 10 23 32 44 37 36 59 43 59 20z m-1453 -6 c-3 -3 -12 -4 -19 -1 -8 3
-5 6 6 6 11 1 17 -2 13 -5z m223 0 c0 -9 -68 -34 -92 -34 -18 0 -14 5 17 19
39 19 75 26 75 15z m397 -61 c-14 -14 -17 -14 -31 0 -14 13 -14 17 -1 27 8 7
12 17 8 24 -3 6 4 0 17 -12 20 -22 21 -25 7 -39z m-530 21 c-3 -3 -12 -4 -19
-1 -8 3 -5 6 6 6 11 1 17 -2 13 -5z m1477 -24 c-12 -23 -22 -30 -45 -30 -16 0
-29 2 -29 5 0 6 72 54 82 54 3 1 0 -12 -8 -29z m136 26 c0 -3 -4 -8 -10 -11
-5 -3 -10 -1 -10 4 0 6 5 11 10 11 6 0 10 -2 10 -4z m-1710 -26 c0 -5 -7 -10
-15 -10 -8 0 -15 5 -15 10 0 6 7 10 15 10 8 0 15 -4 15 -10z m660 -12 c-1 -16
-28 -53 -35 -47 -6 7 18 59 28 59 4 0 7 -6 7 -12z m-483 -14 c-3 -3 -12 -4
-19 -1 -8 3 -5 6 6 6 11 1 17 -2 13 -5z m-44 -11 c-7 -2 -19 -2 -25 0 -7 3 -2
5 12 5 14 0 19 -2 13 -5z m-96 -19 c-3 -3 -12 -4 -19 -1 -8 3 -5 6 6 6 11 1
17 -2 13 -5z m116 -11 c-7 -2 -19 -2 -25 0 -7 3 -2 5 12 5 14 0 19 -2 13 -5z
m-123 -13 c8 -5 12 -12 8 -15 -10 -10 -49 5 -43 16 8 11 16 11 35 -1z m125
-40 c-11 -5 -27 -9 -35 -9 -9 0 -8 4 5 9 11 5 27 9 35 9 9 0 8 -4 -5 -9z
m-115 -10 c0 -5 -9 -10 -21 -10 -11 0 -17 5 -14 10 3 6 13 10 21 10 8 0 14 -4
14 -10z m5 -30 c-3 -5 -10 -10 -16 -10 -5 0 -9 5 -9 10 0 6 7 10 16 10 8 0 12
-4 9 -10z m691 -24 c8 -32 -25 -86 -38 -62 -5 9 -5 24 2 35 6 11 10 24 9 28
-5 32 19 31 27 -1z m-536 -46 c-14 -4 -34 -8 -45 -9 -16 -1 -17 1 -5 9 8 5 29
9 45 9 29 -1 29 -1 5 -9z m540 -36 c0 -8 -5 -12 -10 -9 -6 4 -8 11 -5 16 9 14
15 11 15 -7z m-545 -15 c17 -1 16 -2 -5 -9 -28 -9 -73 -12 -51 -3 11 5 11 7 0
15 -10 7 -7 8 11 4 14 -3 34 -6 45 -7z m12 -35 c-3 -3 -12 -4 -19 -1 -8 3 -5
6 6 6 11 1 17 -2 13 -5z m253 -3 c0 -14 -29 -22 -100 -27 -68 -4 -65 1 10 22
55 15 90 17 90 5z m-303 -7 c-3 -3 -12 -4 -19 -1 -8 3 -5 6 6 6 11 1 17 -2 13
-5z m358 -13 c-3 -6 -16 -11 -29 -11 -13 0 -31 -9 -41 -20 -10 -11 -25 -20
-34 -20 -11 1 -8 5 9 15 33 19 12 19 -33 0 -41 -17 -71 -20 -62 -6 3 5 31 15
62 21 30 7 72 18 92 25 39 13 47 13 36 -4z m-405 5 c0 -2 -7 -6 -15 -10 -8 -3
-15 -1 -15 4 0 6 7 10 15 10 8 0 15 -2 15 -4z m-346 -41 c-4 -8 -11 -15 -16
-15 -6 0 -5 6 2 15 7 8 14 15 16 15 2 0 1 -7 -2 -15z m766 9 c0 -7 -66 -34
-82 -34 -7 1 3 9 22 20 35 19 60 25 60 14z m-160 -38 c0 -2 -20 -11 -45 -19
-52 -18 -60 -14 -12 7 32 14 57 20 57 12z m57 -2 c-3 -3 -12 -4 -19 -1 -8 3
-5 6 6 6 11 1 17 -2 13 -5z m111 1 c-10 -11 -192 -56 -208 -52 -20 5 32 27 68
28 15 0 43 7 62 14 35 13 88 20 78 10z m-288 -45 c-8 -5 -19 -10 -25 -10 -5 0
-3 5 5 10 8 5 20 10 25 10 6 0 3 -5 -5 -10z m440 -20 c-11 -21 -30 -27 -30
-10 0 5 -7 7 -16 3 -8 -3 -13 -12 -10 -19 3 -9 -2 -14 -14 -14 -10 0 -21 -4
-24 -9 -6 -10 -91 -26 -119 -22 -10 1 -26 -4 -35 -12 -28 -23 -46 -32 -37 -17
6 9 2 10 -16 5 -16 -5 -20 -4 -14 2 6 6 35 18 65 27 30 9 64 20 75 25 34 14
170 60 178 60 4 1 3 -8 -3 -19z m-440 -10 c-8 -5 -22 -10 -30 -10 -13 0 -13 1
0 10 8 5 22 10 30 10 13 0 13 -1 0 -10z m385 -80 c-10 -11 -21 -18 -23 -15 -3
3 3 12 14 20 27 20 30 18 9 -5z m-329 -25 c-33 -17 -46 -19 -46 -6 0 10 22 18
55 20 15 1 13 -3 -9 -14z m269 0 c-16 -8 -37 -14 -45 -14 -8 0 -1 7 15 14 17
8 37 14 45 14 8 0 2 -7 -15 -14z m-340 -15 c-11 -5 -27 -9 -35 -9 -9 0 -8 4 5
9 11 5 27 9 35 9 9 0 8 -4 -5 -9z m275 -4 c0 -8 -100 -38 -112 -34 -6 2 11 11
38 20 50 17 74 21 74 14z m-357 -13 c-7 -2 -13 -9 -13 -15 0 -25 -89 -72 -106
-55 -10 9 27 62 48 69 27 7 89 9 71 1z m192 -38 c-16 -8 -39 -14 -50 -15 -29
0 -216 -48 -237 -60 -21 -12 -24 2 -5 18 6 6 50 18 97 27 47 9 103 20 125 25
96 22 111 23 70 5z m-315 -95 c0 -5 -8 -10 -17 -10 -15 0 -16 2 -3 10 19 12
20 12 20 0z m40 -39 c0 -19 -6 -22 -92 -37 -22 -3 -29 -2 -19 4 11 8 11 11 0
18 -10 6 -2 12 26 20 61 19 85 17 85 -5z m-375 -169 c-8 -8 -25 10 -19 20 4 6
9 5 15 -3 4 -7 6 -15 4 -17z"/>
<path d="M2416 3555 c-3 -8 -1 -15 4 -15 6 0 10 7 10 15 0 8 -2 15 -4 15 -2 0
-6 -7 -10 -15z"/>
<path d="M2786 3605 c-9 -26 -7 -32 5 -12 6 10 9 21 6 23 -2 3 -7 -2 -11 -11z"/>
<path d="M2751 3503 c-1 -6 -4 -20 -7 -30 -5 -17 -5 -17 6 0 6 10 9 23 6 30
-3 9 -5 9 -5 0z"/>
<path d="M3136 3425 c-9 -26 -7 -32 5 -12 6 10 9 21 6 23 -2 3 -7 -2 -11 -11z"/>
<path d="M2401 2250 c0 -8 4 -22 9 -30 12 -18 12 -2 0 25 -6 13 -9 15 -9 5z"/>
<path d="M2060 2895 c0 -8 2 -15 4 -15 2 0 6 7 10 15 3 8 1 15 -4 15 -6 0 -10
-7 -10 -15z"/>
<path d="M2291 2994 c0 -11 3 -14 6 -6 3 7 2 16 -1 19 -3 4 -6 -2 -5 -13z"/>
<path d="M2320 2976 c0 -8 4 -17 9 -20 5 -4 7 3 4 14 -6 23 -13 26 -13 6z"/>
<path d="M2496 2935 c-9 -26 -7 -32 5 -12 6 10 9 21 6 23 -2 3 -7 -2 -11 -11z"/>
<path d="M2310 2924 c0 -8 5 -12 10 -9 6 3 10 10 10 16 0 5 -4 9 -10 9 -5 0
-10 -7 -10 -16z"/>
<path d="M2466 2923 c-6 -14 -5 -15 5 -6 7 7 10 15 7 18 -3 3 -9 -2 -12 -12z"/>
<path d="M2251 2893 c-1 -6 -4 -20 -7 -30 -5 -17 -5 -17 6 0 6 10 9 23 6 30
-3 9 -5 9 -5 0z"/>
<path d="M2630 2878 c-12 -22 -12 -22 6 -6 10 10 15 20 12 24 -4 3 -12 -5 -18
-18z"/>
<path d="M2457 2823 c-16 -36 -27 -67 -25 -68 8 -8 24 13 48 60 34 69 34 69
22 61 -6 -3 -12 -2 -14 3 -1 6 -16 -19 -31 -56z"/>
<path d="M2595 2774 c-9 -15 -12 -23 -6 -20 11 7 35 46 28 46 -3 0 -12 -12
-22 -26z"/>
<path d="M2525 2729 c-4 -6 -5 -12 -2 -15 2 -3 7 2 10 11 7 17 1 20 -8 4z"/>
<path d="M2815 2763 c-29 -56 -30 -61 -8 -33 28 35 45 70 35 70 -4 0 -17 -17
-27 -37z"/>
<path d="M2779 2753 c-13 -16 -12 -17 4 -4 9 7 17 15 17 17 0 8 -8 3 -21 -13z"/>
<path d="M2747 2713 c-4 -3 -7 -11 -7 -17 0 -6 5 -5 12 2 6 6 9 14 7 17 -3 3
-9 2 -12 -2z"/>
<path d="M2850 2680 c-6 -12 -9 -24 -7 -27 3 -2 11 5 17 17 6 12 9 24 7 27 -3
2 -11 -5 -17 -17z"/>
<path d="M2890 2575 c-7 -9 -11 -17 -9 -20 3 -2 10 5 17 15 14 24 10 26 -8 5z"/>
<path d="M1745 2450 c-3 -6 1 -7 9 -4 18 7 21 14 7 14 -6 0 -13 -4 -16 -10z"/>
<path d="M1745 2390 c-3 -5 -1 -10 4 -10 6 0 11 5 11 10 0 6 -2 10 -4 10 -3 0
-8 -4 -11 -10z"/>
<path d="M1893 2318 c-24 -32 -24 -41 0 -19 15 14 27 26 27 28 0 8 -19 2 -27
-9z"/>
<path d="M2150 2225 c-7 -9 -10 -18 -7 -21 3 -3 10 4 17 15 13 25 8 27 -10 6z"/>
<path d="M1662 1835 c0 -16 2 -22 5 -12 2 9 2 23 0 30 -3 6 -5 -1 -5 -18z"/>
<path d="M2527 1731 c-4 -17 -3 -21 5 -13 5 5 8 16 6 23 -3 8 -7 3 -11 -10z"/>
<path d="M1750 1719 c0 -5 -4 -8 -9 -5 -4 3 -6 -6 -3 -20 3 -19 7 -22 18 -13
7 6 18 8 24 4 14 -9 12 6 -4 28 -15 19 -26 22 -26 6z"/>
<path d="M1895 1479 c-11 -17 1 -21 15 -4 8 9 8 15 2 15 -6 0 -14 -5 -17 -11z"/>
<path d="M2045 1290 c-3 -5 -1 -10 4 -10 6 0 11 5 11 10 0 6 -2 10 -4 10 -3 0
-8 -4 -11 -10z"/>
<path d="M610 2146 c0 -2 7 -7 16 -10 8 -3 12 -2 9 4 -6 10 -25 14 -25 6z"/>
<path d="M2255 2036 c-23 -25 -26 -40 -4 -19 12 12 21 24 18 27 -2 2 -9 -1
-14 -8z"/>
<path d="M1245 2070 c-3 -6 1 -7 9 -4 18 7 21 14 7 14 -6 0 -13 -4 -16 -10z"/>
<path d="M148 1663 c7 -3 16 -2 19 1 4 3 -2 6 -13 5 -11 0 -14 -3 -6 -6z"/>
<path d="M189 1433 c-13 -17 -13 -17 6 -3 11 8 22 16 24 17 2 2 0 3 -6 3 -6 0
-17 -8 -24 -17z"/>
<path d="M215 640 c-3 -5 -1 -10 4 -10 6 0 11 5 11 10 0 6 -2 10 -4 10 -3 0
-8 -4 -11 -10z"/>
<path d="M540 1480 c0 -12 8 -12 35 0 18 8 17 9 -7 9 -16 1 -28 -3 -28 -9z"/>
<path d="M720 1220 c-9 -6 -10 -10 -3 -10 6 0 15 5 18 10 8 12 4 12 -15 0z"/>
<path d="M598 1183 c7 -3 16 -2 19 1 4 3 -2 6 -13 5 -11 0 -14 -3 -6 -6z"/>
<path d="M975 1250 c-3 -5 -1 -10 4 -10 6 0 11 5 11 10 0 6 -2 10 -4 10 -3 0
-8 -4 -11 -10z"/>
<path d="M3993 3960 c0 -25 2 -35 4 -22 2 12 2 32 0 45 -2 12 -4 2 -4 -23z"/>
<path d="M3180 3936 c0 -2 7 -7 16 -10 8 -3 12 -2 9 4 -6 10 -25 14 -25 6z"/>
<path d="M3982 3835 c0 -16 2 -22 5 -12 2 9 2 23 0 30 -3 6 -5 -1 -5 -18z"/>
<path d="M3968 3750 c-4 -14 -9 -50 -12 -80 l-5 -55 14 55 c8 30 14 66 12 80
l-2 25 -7 -25z"/>
<path d="M990 3660 c-43 -8 -118 -50 -125 -70 -3 -8 -14 -21 -26 -28 -12 -8
-18 -9 -14 -3 8 14 2 14 -29 0 -13 -6 -27 -23 -31 -38 -4 -14 -12 -29 -18 -33
-19 -11 -13 -167 7 -206 9 -18 21 -30 26 -27 6 4 10 2 10 -3 0 -6 21 -33 47
-62 87 -96 202 -124 329 -78 43 15 68 31 82 52 12 17 20 33 19 36 -1 3 8 19
21 37 12 17 22 38 22 46 0 9 5 17 11 19 18 6 15 158 -4 194 -21 41 -107 119
-153 140 -47 21 -127 31 -174 24z m30 -130 c0 -5 -5 -10 -11 -10 -5 0 -7 5 -4
10 3 6 8 10 11 10 2 0 4 -4 4 -10z m-55 -36 c-21 -21 -14 -27 18 -15 22 9 26
7 31 -15 4 -13 13 -24 21 -24 19 0 19 -16 0 -24 -8 -3 -15 -15 -15 -26 0 -19
-10 -24 -39 -21 -7 2 -10 -2 -6 -8 3 -7 -2 -11 -14 -11 -15 0 -21 9 -26 41 -4
22 -4 43 -1 46 3 3 -2 12 -12 19 -16 13 -15 15 8 34 31 24 59 28 35 4z m321
-52 c46 -85 7 -229 -72 -267 -20 -9 -38 -15 -40 -12 -3 3 9 20 26 38 51 55 63
87 64 169 1 59 -3 81 -19 104 l-19 29 20 -13 c12 -7 30 -29 40 -48z m-373 -89
c3 -46 2 -83 -2 -83 -3 0 -14 9 -24 20 -13 15 -16 35 -14 80 2 33 -1 61 -6 63
-4 1 -5 10 -2 19 6 16 8 16 25 0 13 -13 19 -39 23 -99z m-66 20 c-3 -10 -5 -2
-5 17 0 19 2 27 5 18 2 -10 2 -26 0 -35z m121 -61 c2 -7 -2 -10 -12 -6 -9 3
-16 11 -16 16 0 13 23 5 28 -10z"/>
<path d="M3941 3574 c0 -11 3 -14 6 -6 3 7 2 16 -1 19 -3 4 -6 -2 -5 -13z"/>
<path d="M3925 3500 c-4 -23 -5 -44 -2 -46 3 -3 8 13 12 36 4 23 5 44 2 46 -3
3 -8 -13 -12 -36z"/>
<path d="M3891 3334 c-7 -30 -11 -57 -9 -60 3 -2 11 21 18 51 7 30 11 57 8 60
-3 3 -10 -20 -17 -51z"/>
<path d="M3851 3184 c-7 -25 -11 -47 -9 -50 3 -2 11 16 18 41 7 25 11 48 8 50
-2 2 -10 -16 -17 -41z"/>
<path d="M3817 3076 c-4 -10 -7 -25 -6 -34 0 -11 4 -9 10 7 5 13 8 29 6 35 -2
5 -6 2 -10 -8z"/>
<path d="M3782 2955 c-7 -14 -12 -31 -12 -38 1 -7 7 3 16 22 17 39 13 54 -4
16z"/>
<path d="M3745 2850 c-4 -12 -5 -24 -2 -27 3 -2 8 5 12 17 4 12 5 24 2 27 -3
2 -8 -5 -12 -17z"/>
<path d="M3711 2758 c-10 -30 -9 -31 4 -14 8 11 15 26 15 33 0 22 -8 14 -19
-19z"/>
<path d="M3676 2675 c-9 -26 -7 -32 5 -12 6 10 9 21 6 23 -2 3 -7 -2 -11 -11z"/>
<path d="M3642 2590 c-18 -29 -15 -38 4 -12 9 13 14 25 12 27 -2 2 -9 -5 -16
-15z"/>
<path d="M3601 2503 c-10 -26 -10 -27 4 -9 8 11 15 23 15 28 0 15 -7 8 -19
-19z"/>
<path d="M3566 2423 c-6 -14 -5 -15 5 -6 7 7 10 15 7 18 -3 3 -9 -2 -12 -12z"/>
<path d="M3530 2360 c-6 -11 -8 -20 -6 -20 3 0 10 9 16 20 6 11 8 20 6 20 -3
0 -10 -9 -16 -20z"/>
<path d="M898 2343 c6 -2 18 -2 25 0 6 3 1 5 -13 5 -14 0 -19 -2 -12 -5z"/>
<path d="M1018 2343 c6 -2 18 -2 25 0 6 3 1 5 -13 5 -14 0 -19 -2 -12 -5z"/>
<path d="M950 2321 c0 -5 5 -13 10 -16 6 -3 10 -2 10 4 0 5 -4 13 -10 16 -5 3
-10 2 -10 -4z"/>
<path d="M1030 2320 c-9 -6 -10 -10 -3 -10 6 0 15 5 18 10 8 12 4 12 -15 0z"/>
<path d="M3495 2289 c-4 -6 -5 -12 -2 -15 2 -3 7 2 10 11 7 17 1 20 -8 4z"/>
<path d="M985 2270 c3 -5 8 -10 11 -10 2 0 4 5 4 10 0 6 -5 10 -11 10 -5 0 -7
-4 -4 -10z"/>
<path d="M950 2245 c5 -6 6 -16 2 -21 -4 -4 2 -2 13 6 11 8 21 15 23 16 2 1
-9 4 -23 6 -19 4 -23 2 -15 -7z"/>
<path d="M3466 2233 c-6 -14 -5 -15 5 -6 7 7 10 15 7 18 -3 3 -9 -2 -12 -12z"/>
<path d="M976 2215 c5 -11 2 -13 -12 -8 -12 4 -15 3 -10 -5 11 -19 33 -14 39
8 3 13 0 20 -9 20 -8 0 -11 -6 -8 -15z"/>
<path d="M1097 2209 c7 -7 15 -10 18 -7 3 3 -2 9 -12 12 -14 6 -15 5 -6 -5z"/>
<path d="M3427 2173 c-4 -3 -7 -11 -7 -17 0 -6 5 -5 12 2 6 6 9 14 7 17 -3 3
-9 2 -12 -2z"/>
<path d="M990 2140 c0 -6 7 -10 15 -10 8 0 15 2 15 4 0 2 -7 6 -15 10 -8 3
-15 1 -15 -4z"/>
<path d="M1041 2127 c-1 -10 -5 -16 -10 -13 -5 3 -15 -2 -22 -11 -12 -14 -11
-15 11 -9 19 6 21 5 10 -3 -12 -9 -11 -11 8 -11 23 0 26 12 12 45 -8 18 -9 18
-9 2z"/>
<path d="M994 2069 c-3 -5 9 -9 25 -9 17 0 31 2 31 4 0 8 -51 13 -56 5z"/>
<path d="M3346 2033 c-6 -14 -5 -15 5 -6 7 7 10 15 7 18 -3 3 -9 -2 -12 -12z"/>
<path d="M860 2020 c-9 -16 -8 -18 5 -14 8 4 15 11 15 18 0 6 4 4 10 -4 5 -8
12 -11 17 -7 4 5 1 12 -7 17 -22 14 -28 12 -40 -10z"/>
<path d="M895 1989 c4 -5 16 -9 27 -9 26 0 19 9 -11 15 -12 2 -19 0 -16 -6z"/>
<path d="M835 1980 c-3 -5 1 -10 10 -10 9 0 13 5 10 10 -3 6 -8 10 -10 10 -2
0 -7 -4 -10 -10z"/>
<path d="M988 1923 c7 -3 16 -2 19 1 4 3 -2 6 -13 5 -11 0 -14 -3 -6 -6z"/>
<path d="M3269 1913 c-13 -16 -12 -17 4 -4 16 13 21 21 13 21 -2 0 -10 -8 -17
-17z"/>
<path d="M1113 1913 c-7 -2 -13 -9 -13 -15 0 -7 5 -7 13 1 8 6 18 7 22 3 5 -4
5 -1 1 6 -4 6 -8 12 -9 11 -1 0 -8 -3 -14 -6z"/>
<path d="M1365 1900 c-10 -11 -15 -20 -11 -20 4 0 19 9 33 20 17 13 20 20 11
20 -8 0 -23 -9 -33 -20z"/>
<path d="M920 1906 c0 -2 7 -6 15 -10 8 -3 15 -1 15 4 0 6 -7 10 -15 10 -8 0
-15 -2 -15 -4z"/>
<path d="M975 1890 c3 -5 11 -10 16 -10 6 0 7 5 4 10 -3 6 -11 10 -16 10 -6 0
-7 -4 -4 -10z"/>
<path d="M854 1877 c-3 -9 -10 -14 -15 -11 -5 3 -5 -6 1 -20 7 -20 6 -24 -5
-19 -8 3 -15 0 -15 -5 0 -6 10 -14 23 -18 12 -4 25 -12 29 -18 4 -6 8 3 8 21
0 17 3 33 8 36 4 2 2 2 -5 1 -15 -4 -27 13 -13 18 6 2 6 9 0 18 -8 12 -10 12
-16 -3z"/>
<path d="M1345 1860 c-3 -6 1 -7 9 -4 18 7 21 14 7 14 -6 0 -13 -4 -16 -10z"/>
<path d="M915 1841 c-6 -11 13 -26 22 -17 4 3 1 6 -6 6 -7 0 -9 5 -6 10 3 6 4
10 1 10 -3 0 -7 -4 -11 -9z"/>
<path d="M1310 1810 c0 -5 4 -10 9 -10 6 0 13 5 16 10 3 6 -1 10 -9 10 -9 0
-16 -4 -16 -10z"/>
<path d="M1390 1800 c-8 -5 -12 -12 -9 -15 4 -3 12 1 19 10 14 17 11 19 -10 5z"/>
<path d="M921 1783 c7 -12 15 -20 18 -17 3 2 -3 12 -13 22 -17 16 -18 16 -5
-5z"/>
<path d="M751 1684 c0 -11 3 -14 6 -6 3 7 2 16 -1 19 -3 4 -6 -2 -5 -13z"/>
<path d="M997 1673 c8 -22 32 -47 39 -41 2 3 -2 11 -11 18 -8 7 -15 19 -15 26
0 8 -4 14 -10 14 -5 0 -6 -8 -3 -17z"/>
<path d="M1390 1670 c-13 -8 -12 -10 3 -10 9 0 17 5 17 10 0 12 -1 12 -20 0z"/>
<path d="M1391 1629 c12 -23 15 -23 22 -5 3 8 -2 16 -14 19 -16 4 -17 2 -8
-14z"/>
<path d="M1420 1570 c0 -5 5 -10 11 -10 5 0 7 5 4 10 -3 6 -8 10 -11 10 -2 0
-4 -4 -4 -10z"/>
<path d="M1435 1540 c-8 -13 5 -13 25 0 13 8 13 10 -2 10 -9 0 -20 -4 -23 -10z"/>
<path d="M1475 1518 l-40 -19 35 7 c19 3 39 10 44 15 19 17 0 16 -39 -3z"/>
<path d="M1458 1468 c8 -8 17 -8 34 0 22 10 21 11 -11 11 -27 1 -32 -2 -23
-11z"/>
<path d="M1480 1430 c13 -25 33 -26 51 -2 13 16 12 16 -4 2 -17 -12 -20 -12
-28 3 -14 25 -32 22 -19 -3z"/>
<path d="M1532 1402 c-9 -7 -8 -13 8 -27 12 -11 18 -25 15 -36 -10 -31 13 -30
28 1 14 27 14 30 -4 35 -22 7 -25 21 -6 28 6 3 3 6 -8 6 -11 0 -26 -3 -33 -7z"/>
<path d="M1520 1359 c0 -5 5 -7 10 -4 6 3 10 8 10 11 0 2 -4 4 -10 4 -5 0 -10
-5 -10 -11z"/>
<path d="M2126 1223 c-4 -5 -22 -13 -39 -20 -23 -8 -26 -12 -12 -12 11 -1 34
8 50 19 17 11 25 20 19 20 -6 0 -14 -3 -18 -7z"/>
<path d="M2599 1133 c-13 -16 -12 -17 4 -4 9 7 17 15 17 17 0 8 -8 3 -21 -13z"/>
<path d="M2530 1070 c-9 -6 -10 -10 -3 -10 6 0 15 5 18 10 8 12 4 12 -15 0z"/>
<path d="M2484 1028 l-19 -23 23 19 c21 18 27 26 19 26 -2 0 -12 -10 -23 -22z"/>
<path d="M2395 960 c-16 -17 -16 -20 -3 -15 9 4 19 13 22 21 7 19 2 18 -19 -6z"/>
<path d="M2311 895 c-24 -19 -40 -35 -35 -35 5 0 29 16 53 35 24 19 40 35 35
35 -5 0 -29 -16 -53 -35z"/>
<path d="M2215 820 c-3 -5 -1 -10 4 -10 6 0 11 5 11 10 0 6 -2 10 -4 10 -3 0
-8 -4 -11 -10z"/>
<path d="M2176 794 c-23 -23 -20 -30 4 -9 11 10 20 20 20 22 0 7 -9 2 -24 -13z"/>
<path d="M2070 724 c-70 -49 -99 -74 -65 -56 34 18 150 102 139 101 -5 0 -38
-20 -74 -45z"/>
<path d="M1935 635 c-16 -14 -35 -25 -41 -25 -6 0 -18 -8 -25 -17 -11 -13 -4
-11 26 6 50 27 93 61 80 60 -5 0 -23 -11 -40 -24z"/>
<path d="M1795 556 c-22 -14 -119 -63 -215 -111 -96 -48 -187 -93 -202 -101
-14 -8 -34 -14 -43 -14 -9 0 -43 -13 -77 -30 -33 -16 -70 -32 -81 -35 -41 -9
-141 -45 -151 -55 -15 -15 15 -12 48 5 15 8 32 15 38 15 19 0 299 115 408 169
129 62 330 170 330 177 0 9 -17 3 -55 -20z"/>
<path d="M156 312 c-2 -4 4 -9 15 -9 10 -1 19 2 19 8 0 11 -27 12 -34 1z"/>
<path d="M132 268 c-20 -20 -14 -27 12 -15 13 7 22 15 20 19 -7 11 -18 10 -32
-4z"/>
<path d="M212 261 c-11 -7 -11 -9 0 -14 9 -3 15 1 15 9 0 8 -1 14 -1 14 -1 0
-7 -4 -14 -9z"/>
<path d="M43 220 c-8 -12 -13 -12 -25 -3 -13 11 -15 5 -16 -46 0 -43 3 -61 14
-65 15 -6 20 9 5 19 -5 3 -7 18 -5 32 6 32 14 43 14 20 0 -10 8 -17 21 -17 11
0 17 4 14 10 -4 7 2 7 19 0 21 -8 24 -7 19 7 -5 12 -3 14 8 7 24 -15 46 -14
46 1 0 18 -9 19 -26 3 -11 -11 -13 -10 -7 0 4 7 1 15 -8 18 -9 3 -13 10 -10
15 3 5 -3 6 -12 2 -10 -4 -15 -2 -11 3 3 5 -3 10 -13 10 -10 0 -22 -7 -27 -16z"/>
<path d="M940 188 c-36 -11 -100 -30 -143 -44 -43 -13 -90 -24 -103 -24 -14 0
-35 -5 -47 -12 -12 -6 -29 -13 -37 -15 -8 -1 -37 -7 -65 -12 -27 -6 -72 -13
-100 -16 -27 -4 -88 -15 -135 -25 -47 -11 -128 -23 -180 -28 -90 -8 -92 -9
-30 -10 70 -1 210 16 337 42 243 51 269 57 471 119 56 17 102 35 102 39 0 4
-1 8 -2 7 -2 -1 -32 -10 -68 -21z"/>
<path d="M8 73 c7 -3 16 -2 19 1 4 3 -2 6 -13 5 -11 0 -14 -3 -6 -6z"/>
<path d="M8 53 c7 -3 16 -2 19 1 4 3 -2 6 -13 5 -11 0 -14 -3 -6 -6z"/>
</g>
</svg>
